<?xml version="1.0" encoding="utf-8" standalone="no"?>
<!DOCTYPE svg PUBLIC "-//W3C//DTD SVG 1.1//EN"
  "http://www.w3.org/Graphics/SVG/1.1/DTD/svg11.dtd">
<!-- Created with matplotlib (https://matplotlib.org/) -->
<svg height="1088.39952pt" version="1.1" viewBox="0 0 728.39952 1088.39952" width="728.39952pt" xmlns="http://www.w3.org/2000/svg" xmlns:xlink="http://www.w3.org/1999/xlink">
 <metadata>
  <rdf:RDF xmlns:cc="http://creativecommons.org/ns#" xmlns:dc="http://purl.org/dc/elements/1.1/" xmlns:rdf="http://www.w3.org/1999/02/22-rdf-syntax-ns#">
   <cc:Work>
    <dc:type rdf:resource="http://purl.org/dc/dcmitype/StillImage"/>
    <dc:date>2020-08-26T00:37:29.566633</dc:date>
    <dc:format>image/svg+xml</dc:format>
    <dc:creator>
     <cc:Agent>
      <dc:title>Matplotlib v3.3.0, https://matplotlib.org/</dc:title>
     </cc:Agent>
    </dc:creator>
   </cc:Work>
  </rdf:RDF>
 </metadata>
 <defs>
  <style type="text/css">*{stroke-linecap:butt;stroke-linejoin:round;}</style>
 </defs>
 <g id="figure_1">
  <g id="patch_1">
   <path d="M 0 1088.39952 
L 728.39952 1088.39952 
L 728.39952 0 
L 0 0 
z
" style="fill:none;"/>
  </g>
  <g id="axes_1">
   <g id="patch_2">
    <path d="M 244.528438 1060.650145 
L 721.19952 1060.650145 
L 721.19952 25.3575 
L 244.528438 25.3575 
z
" style="fill:#ffffff;"/>
   </g>
   <g id="PathCollection_1">
    <defs>
     <path d="M 0 3 
C 0.795609 3 1.55874 2.683901 2.12132 2.12132 
C 2.683901 1.55874 3 0.795609 3 0 
C 3 -0.795609 2.683901 -1.55874 2.12132 -2.12132 
C 1.55874 -2.683901 0.795609 -3 0 -3 
C -0.795609 -3 -1.55874 -2.683901 -2.12132 -2.12132 
C -2.683901 -1.55874 -3 -0.795609 -3 0 
C -3 0.795609 -2.683901 1.55874 -2.12132 2.12132 
C -1.55874 2.683901 -0.795609 3 0 3 
z
" id="m20e6c086bb" style="stroke:#ff0000;"/>
    </defs>
    <g clip-path="url(#pc50cdd245d)">
     <use style="fill:#ff0000;stroke:#ff0000;" x="462.586118" xlink:href="#m20e6c086bb" y="1037.728537"/>
     <use style="fill:#ff0000;stroke:#ff0000;" x="492.986191" xlink:href="#m20e6c086bb" y="995.705588"/>
     <use style="fill:#ff0000;stroke:#ff0000;" x="470.186136" xlink:href="#m20e6c086bb" y="953.682639"/>
     <use style="fill:#ff0000;stroke:#ff0000;" x="477.786155" xlink:href="#m20e6c086bb" y="911.659691"/>
     <use style="fill:#ff0000;stroke:#ff0000;" x="561.386358" xlink:href="#m20e6c086bb" y="869.636742"/>
     <use style="fill:#ff0000;stroke:#ff0000;" x="568.986376" xlink:href="#m20e6c086bb" y="827.613793"/>
     <use style="fill:#ff0000;stroke:#ff0000;" x="492.986191" xlink:href="#m20e6c086bb" y="785.590844"/>
     <use style="fill:#ff0000;stroke:#ff0000;" x="561.386358" xlink:href="#m20e6c086bb" y="743.567896"/>
     <use style="fill:#ff0000;stroke:#ff0000;" x="462.586118" xlink:href="#m20e6c086bb" y="701.544947"/>
     <use style="fill:#ff0000;stroke:#ff0000;" x="576.586395" xlink:href="#m20e6c086bb" y="659.521998"/>
     <use style="fill:#ff0000;stroke:#ff0000;" x="477.786155" xlink:href="#m20e6c086bb" y="617.49905"/>
     <use style="fill:#ff0000;stroke:#ff0000;" x="492.986191" xlink:href="#m20e6c086bb" y="575.476101"/>
     <use style="fill:#ff0000;stroke:#ff0000;" x="500.58621" xlink:href="#m20e6c086bb" y="533.453152"/>
     <use style="fill:#ff0000;stroke:#ff0000;" x="454.986099" xlink:href="#m20e6c086bb" y="491.430204"/>
     <use style="fill:#ff0000;stroke:#ff0000;" x="508.186228" xlink:href="#m20e6c086bb" y="449.407255"/>
     <use style="fill:#ff0000;stroke:#ff0000;" x="470.186136" xlink:href="#m20e6c086bb" y="407.384306"/>
     <use style="fill:#ff0000;stroke:#ff0000;" x="454.986099" xlink:href="#m20e6c086bb" y="365.361358"/>
     <use style="fill:#ff0000;stroke:#ff0000;" x="485.386173" xlink:href="#m20e6c086bb" y="323.338409"/>
     <use style="fill:#ff0000;stroke:#ff0000;" x="439.786062" xlink:href="#m20e6c086bb" y="281.31546"/>
     <use style="fill:#ff0000;stroke:#ff0000;" x="492.986191" xlink:href="#m20e6c086bb" y="239.292512"/>
     <use style="fill:#ff0000;stroke:#ff0000;" x="500.58621" xlink:href="#m20e6c086bb" y="197.269563"/>
     <use style="fill:#ff0000;stroke:#ff0000;" x="508.186228" xlink:href="#m20e6c086bb" y="155.246614"/>
     <use style="fill:#ff0000;stroke:#ff0000;" x="439.786062" xlink:href="#m20e6c086bb" y="113.223665"/>
     <use style="fill:#ff0000;stroke:#ff0000;" x="454.986099" xlink:href="#m20e6c086bb" y="71.200717"/>
    </g>
   </g>
   <g id="matplotlib.axis_1">
    <g id="xtick_1">
     <g id="line2d_1">
      <defs>
       <path d="M 0 0 
L 0 3.5 
" id="m2917987aa9" style="stroke:#000000;stroke-width:0.8;"/>
      </defs>
      <g>
       <use style="stroke:#000000;stroke-width:0.8;" x="280.185674" xlink:href="#m2917987aa9" y="1060.650145"/>
      </g>
     </g>
     <g id="text_1">
      <!-- −20 -->
      <g transform="translate(265.412393 1078.287957)scale(0.14 -0.14)">
       <defs>
        <path d="M 10.59375 35.5 
L 73.1875 35.5 
L 73.1875 27.203125 
L 10.59375 27.203125 
z
" id="DejaVuSans-8722"/>
        <path d="M 19.1875 8.296875 
L 53.609375 8.296875 
L 53.609375 0 
L 7.328125 0 
L 7.328125 8.296875 
Q 12.9375 14.109375 22.625 23.890625 
Q 32.328125 33.6875 34.8125 36.53125 
Q 39.546875 41.84375 41.421875 45.53125 
Q 43.3125 49.21875 43.3125 52.78125 
Q 43.3125 58.59375 39.234375 62.25 
Q 35.15625 65.921875 28.609375 65.921875 
Q 23.96875 65.921875 18.8125 64.3125 
Q 13.671875 62.703125 7.8125 59.421875 
L 7.8125 69.390625 
Q 13.765625 71.78125 18.9375 73 
Q 24.125 74.21875 28.421875 74.21875 
Q 39.75 74.21875 46.484375 68.546875 
Q 53.21875 62.890625 53.21875 53.421875 
Q 53.21875 48.921875 51.53125 44.890625 
Q 49.859375 40.875 45.40625 35.40625 
Q 44.1875 33.984375 37.640625 27.21875 
Q 31.109375 20.453125 19.1875 8.296875 
z
" id="DejaVuSans-50"/>
        <path d="M 31.78125 66.40625 
Q 24.171875 66.40625 20.328125 58.90625 
Q 16.5 51.421875 16.5 36.375 
Q 16.5 21.390625 20.328125 13.890625 
Q 24.171875 6.390625 31.78125 6.390625 
Q 39.453125 6.390625 43.28125 13.890625 
Q 47.125 21.390625 47.125 36.375 
Q 47.125 51.421875 43.28125 58.90625 
Q 39.453125 66.40625 31.78125 66.40625 
z
M 31.78125 74.21875 
Q 44.046875 74.21875 50.515625 64.515625 
Q 56.984375 54.828125 56.984375 36.375 
Q 56.984375 17.96875 50.515625 8.265625 
Q 44.046875 -1.421875 31.78125 -1.421875 
Q 19.53125 -1.421875 13.0625 8.265625 
Q 6.59375 17.96875 6.59375 36.375 
Q 6.59375 54.828125 13.0625 64.515625 
Q 19.53125 74.21875 31.78125 74.21875 
z
" id="DejaVuSans-48"/>
       </defs>
       <use xlink:href="#DejaVuSans-8722"/>
       <use x="83.789062" xlink:href="#DejaVuSans-50"/>
       <use x="147.412109" xlink:href="#DejaVuSans-48"/>
      </g>
     </g>
    </g>
    <g id="xtick_2">
     <g id="line2d_2">
      <g>
       <use style="stroke:#000000;stroke-width:0.8;" x="356.185859" xlink:href="#m2917987aa9" y="1060.650145"/>
      </g>
     </g>
     <g id="text_2">
      <!-- −10 -->
      <g transform="translate(341.412577 1078.287957)scale(0.14 -0.14)">
       <defs>
        <path d="M 12.40625 8.296875 
L 28.515625 8.296875 
L 28.515625 63.921875 
L 10.984375 60.40625 
L 10.984375 69.390625 
L 28.421875 72.90625 
L 38.28125 72.90625 
L 38.28125 8.296875 
L 54.390625 8.296875 
L 54.390625 0 
L 12.40625 0 
z
" id="DejaVuSans-49"/>
       </defs>
       <use xlink:href="#DejaVuSans-8722"/>
       <use x="83.789062" xlink:href="#DejaVuSans-49"/>
       <use x="147.412109" xlink:href="#DejaVuSans-48"/>
      </g>
     </g>
    </g>
    <g id="xtick_3">
     <g id="line2d_3">
      <g>
       <use style="stroke:#000000;stroke-width:0.8;" x="432.186044" xlink:href="#m2917987aa9" y="1060.650145"/>
      </g>
     </g>
     <g id="text_3">
      <!-- 0 -->
      <g transform="translate(427.732294 1078.287957)scale(0.14 -0.14)">
       <use xlink:href="#DejaVuSans-48"/>
      </g>
     </g>
    </g>
    <g id="xtick_4">
     <g id="line2d_4">
      <g>
       <use style="stroke:#000000;stroke-width:0.8;" x="508.186228" xlink:href="#m2917987aa9" y="1060.650145"/>
      </g>
     </g>
     <g id="text_4">
      <!-- 10 -->
      <g transform="translate(499.278728 1078.287957)scale(0.14 -0.14)">
       <use xlink:href="#DejaVuSans-49"/>
       <use x="63.623047" xlink:href="#DejaVuSans-48"/>
      </g>
     </g>
    </g>
    <g id="xtick_5">
     <g id="line2d_5">
      <g>
       <use style="stroke:#000000;stroke-width:0.8;" x="584.186413" xlink:href="#m2917987aa9" y="1060.650145"/>
      </g>
     </g>
     <g id="text_5">
      <!-- 20 -->
      <g transform="translate(575.278913 1078.287957)scale(0.14 -0.14)">
       <use xlink:href="#DejaVuSans-50"/>
       <use x="63.623047" xlink:href="#DejaVuSans-48"/>
      </g>
     </g>
    </g>
    <g id="xtick_6">
     <g id="line2d_6">
      <g>
       <use style="stroke:#000000;stroke-width:0.8;" x="660.186598" xlink:href="#m2917987aa9" y="1060.650145"/>
      </g>
     </g>
     <g id="text_6">
      <!-- 30 -->
      <g transform="translate(651.279098 1078.287957)scale(0.14 -0.14)">
       <defs>
        <path d="M 40.578125 39.3125 
Q 47.65625 37.796875 51.625 33 
Q 55.609375 28.21875 55.609375 21.1875 
Q 55.609375 10.40625 48.1875 4.484375 
Q 40.765625 -1.421875 27.09375 -1.421875 
Q 22.515625 -1.421875 17.65625 -0.515625 
Q 12.796875 0.390625 7.625 2.203125 
L 7.625 11.71875 
Q 11.71875 9.328125 16.59375 8.109375 
Q 21.484375 6.890625 26.8125 6.890625 
Q 36.078125 6.890625 40.9375 10.546875 
Q 45.796875 14.203125 45.796875 21.1875 
Q 45.796875 27.640625 41.28125 31.265625 
Q 36.765625 34.90625 28.71875 34.90625 
L 20.21875 34.90625 
L 20.21875 43.015625 
L 29.109375 43.015625 
Q 36.375 43.015625 40.234375 45.921875 
Q 44.09375 48.828125 44.09375 54.296875 
Q 44.09375 59.90625 40.109375 62.90625 
Q 36.140625 65.921875 28.71875 65.921875 
Q 24.65625 65.921875 20.015625 65.03125 
Q 15.375 64.15625 9.8125 62.3125 
L 9.8125 71.09375 
Q 15.4375 72.65625 20.34375 73.4375 
Q 25.25 74.21875 29.59375 74.21875 
Q 40.828125 74.21875 47.359375 69.109375 
Q 53.90625 64.015625 53.90625 55.328125 
Q 53.90625 49.265625 50.4375 45.09375 
Q 46.96875 40.921875 40.578125 39.3125 
z
" id="DejaVuSans-51"/>
       </defs>
       <use xlink:href="#DejaVuSans-51"/>
       <use x="63.623047" xlink:href="#DejaVuSans-48"/>
      </g>
     </g>
    </g>
   </g>
   <g id="matplotlib.axis_2">
    <g id="ytick_1">
     <g id="text_7">
      <!--  Duke v.  Syracuse -->
      <g transform="translate(108.2275 1043.047443)scale(0.14 -0.14)">
       <defs>
        <path id="DejaVuSans-32"/>
        <path d="M 19.671875 64.796875 
L 19.671875 8.109375 
L 31.59375 8.109375 
Q 46.6875 8.109375 53.6875 14.9375 
Q 60.6875 21.78125 60.6875 36.53125 
Q 60.6875 51.171875 53.6875 57.984375 
Q 46.6875 64.796875 31.59375 64.796875 
z
M 9.8125 72.90625 
L 30.078125 72.90625 
Q 51.265625 72.90625 61.171875 64.09375 
Q 71.09375 55.28125 71.09375 36.53125 
Q 71.09375 17.671875 61.125 8.828125 
Q 51.171875 0 30.078125 0 
L 9.8125 0 
z
" id="DejaVuSans-68"/>
        <path d="M 8.5 21.578125 
L 8.5 54.6875 
L 17.484375 54.6875 
L 17.484375 21.921875 
Q 17.484375 14.15625 20.5 10.265625 
Q 23.53125 6.390625 29.59375 6.390625 
Q 36.859375 6.390625 41.078125 11.03125 
Q 45.3125 15.671875 45.3125 23.6875 
L 45.3125 54.6875 
L 54.296875 54.6875 
L 54.296875 0 
L 45.3125 0 
L 45.3125 8.40625 
Q 42.046875 3.421875 37.71875 1 
Q 33.40625 -1.421875 27.6875 -1.421875 
Q 18.265625 -1.421875 13.375 4.4375 
Q 8.5 10.296875 8.5 21.578125 
z
M 31.109375 56 
z
" id="DejaVuSans-117"/>
        <path d="M 9.078125 75.984375 
L 18.109375 75.984375 
L 18.109375 31.109375 
L 44.921875 54.6875 
L 56.390625 54.6875 
L 27.390625 29.109375 
L 57.625 0 
L 45.90625 0 
L 18.109375 26.703125 
L 18.109375 0 
L 9.078125 0 
z
" id="DejaVuSans-107"/>
        <path d="M 56.203125 29.59375 
L 56.203125 25.203125 
L 14.890625 25.203125 
Q 15.484375 15.921875 20.484375 11.0625 
Q 25.484375 6.203125 34.421875 6.203125 
Q 39.59375 6.203125 44.453125 7.46875 
Q 49.3125 8.734375 54.109375 11.28125 
L 54.109375 2.78125 
Q 49.265625 0.734375 44.1875 -0.34375 
Q 39.109375 -1.421875 33.890625 -1.421875 
Q 20.796875 -1.421875 13.15625 6.1875 
Q 5.515625 13.8125 5.515625 26.8125 
Q 5.515625 40.234375 12.765625 48.109375 
Q 20.015625 56 32.328125 56 
Q 43.359375 56 49.78125 48.890625 
Q 56.203125 41.796875 56.203125 29.59375 
z
M 47.21875 32.234375 
Q 47.125 39.59375 43.09375 43.984375 
Q 39.0625 48.390625 32.421875 48.390625 
Q 24.90625 48.390625 20.390625 44.140625 
Q 15.875 39.890625 15.1875 32.171875 
z
" id="DejaVuSans-101"/>
        <path d="M 2.984375 54.6875 
L 12.5 54.6875 
L 29.59375 8.796875 
L 46.6875 54.6875 
L 56.203125 54.6875 
L 35.6875 0 
L 23.484375 0 
z
" id="DejaVuSans-118"/>
        <path d="M 10.6875 12.40625 
L 21 12.40625 
L 21 0 
L 10.6875 0 
z
" id="DejaVuSans-46"/>
        <path d="M 53.515625 70.515625 
L 53.515625 60.890625 
Q 47.90625 63.578125 42.921875 64.890625 
Q 37.9375 66.21875 33.296875 66.21875 
Q 25.25 66.21875 20.875 63.09375 
Q 16.5 59.96875 16.5 54.203125 
Q 16.5 49.359375 19.40625 46.890625 
Q 22.3125 44.4375 30.421875 42.921875 
L 36.375 41.703125 
Q 47.40625 39.59375 52.65625 34.296875 
Q 57.90625 29 57.90625 20.125 
Q 57.90625 9.515625 50.796875 4.046875 
Q 43.703125 -1.421875 29.984375 -1.421875 
Q 24.8125 -1.421875 18.96875 -0.25 
Q 13.140625 0.921875 6.890625 3.21875 
L 6.890625 13.375 
Q 12.890625 10.015625 18.65625 8.296875 
Q 24.421875 6.59375 29.984375 6.59375 
Q 38.421875 6.59375 43.015625 9.90625 
Q 47.609375 13.234375 47.609375 19.390625 
Q 47.609375 24.75 44.3125 27.78125 
Q 41.015625 30.8125 33.5 32.328125 
L 27.484375 33.5 
Q 16.453125 35.6875 11.515625 40.375 
Q 6.59375 45.0625 6.59375 53.421875 
Q 6.59375 63.09375 13.40625 68.65625 
Q 20.21875 74.21875 32.171875 74.21875 
Q 37.3125 74.21875 42.625 73.28125 
Q 47.953125 72.359375 53.515625 70.515625 
z
" id="DejaVuSans-83"/>
        <path d="M 32.171875 -5.078125 
Q 28.375 -14.84375 24.75 -17.8125 
Q 21.140625 -20.796875 15.09375 -20.796875 
L 7.90625 -20.796875 
L 7.90625 -13.28125 
L 13.1875 -13.28125 
Q 16.890625 -13.28125 18.9375 -11.515625 
Q 21 -9.765625 23.484375 -3.21875 
L 25.09375 0.875 
L 2.984375 54.6875 
L 12.5 54.6875 
L 29.59375 11.921875 
L 46.6875 54.6875 
L 56.203125 54.6875 
z
" id="DejaVuSans-121"/>
        <path d="M 41.109375 46.296875 
Q 39.59375 47.171875 37.8125 47.578125 
Q 36.03125 48 33.890625 48 
Q 26.265625 48 22.1875 43.046875 
Q 18.109375 38.09375 18.109375 28.8125 
L 18.109375 0 
L 9.078125 0 
L 9.078125 54.6875 
L 18.109375 54.6875 
L 18.109375 46.1875 
Q 20.953125 51.171875 25.484375 53.578125 
Q 30.03125 56 36.53125 56 
Q 37.453125 56 38.578125 55.875 
Q 39.703125 55.765625 41.0625 55.515625 
z
" id="DejaVuSans-114"/>
        <path d="M 34.28125 27.484375 
Q 23.390625 27.484375 19.1875 25 
Q 14.984375 22.515625 14.984375 16.5 
Q 14.984375 11.71875 18.140625 8.90625 
Q 21.296875 6.109375 26.703125 6.109375 
Q 34.1875 6.109375 38.703125 11.40625 
Q 43.21875 16.703125 43.21875 25.484375 
L 43.21875 27.484375 
z
M 52.203125 31.203125 
L 52.203125 0 
L 43.21875 0 
L 43.21875 8.296875 
Q 40.140625 3.328125 35.546875 0.953125 
Q 30.953125 -1.421875 24.3125 -1.421875 
Q 15.921875 -1.421875 10.953125 3.296875 
Q 6 8.015625 6 15.921875 
Q 6 25.140625 12.171875 29.828125 
Q 18.359375 34.515625 30.609375 34.515625 
L 43.21875 34.515625 
L 43.21875 35.40625 
Q 43.21875 41.609375 39.140625 45 
Q 35.0625 48.390625 27.6875 48.390625 
Q 23 48.390625 18.546875 47.265625 
Q 14.109375 46.140625 10.015625 43.890625 
L 10.015625 52.203125 
Q 14.9375 54.109375 19.578125 55.046875 
Q 24.21875 56 28.609375 56 
Q 40.484375 56 46.34375 49.84375 
Q 52.203125 43.703125 52.203125 31.203125 
z
" id="DejaVuSans-97"/>
        <path d="M 48.78125 52.59375 
L 48.78125 44.1875 
Q 44.96875 46.296875 41.140625 47.34375 
Q 37.3125 48.390625 33.40625 48.390625 
Q 24.65625 48.390625 19.8125 42.84375 
Q 14.984375 37.3125 14.984375 27.296875 
Q 14.984375 17.28125 19.8125 11.734375 
Q 24.65625 6.203125 33.40625 6.203125 
Q 37.3125 6.203125 41.140625 7.25 
Q 44.96875 8.296875 48.78125 10.40625 
L 48.78125 2.09375 
Q 45.015625 0.34375 40.984375 -0.53125 
Q 36.96875 -1.421875 32.421875 -1.421875 
Q 20.0625 -1.421875 12.78125 6.34375 
Q 5.515625 14.109375 5.515625 27.296875 
Q 5.515625 40.671875 12.859375 48.328125 
Q 20.21875 56 33.015625 56 
Q 37.15625 56 41.109375 55.140625 
Q 45.0625 54.296875 48.78125 52.59375 
z
" id="DejaVuSans-99"/>
        <path d="M 44.28125 53.078125 
L 44.28125 44.578125 
Q 40.484375 46.53125 36.375 47.5 
Q 32.28125 48.484375 27.875 48.484375 
Q 21.1875 48.484375 17.84375 46.4375 
Q 14.5 44.390625 14.5 40.28125 
Q 14.5 37.15625 16.890625 35.375 
Q 19.28125 33.59375 26.515625 31.984375 
L 29.59375 31.296875 
Q 39.15625 29.25 43.1875 25.515625 
Q 47.21875 21.78125 47.21875 15.09375 
Q 47.21875 7.46875 41.1875 3.015625 
Q 35.15625 -1.421875 24.609375 -1.421875 
Q 20.21875 -1.421875 15.453125 -0.5625 
Q 10.6875 0.296875 5.421875 2 
L 5.421875 11.28125 
Q 10.40625 8.6875 15.234375 7.390625 
Q 20.0625 6.109375 24.8125 6.109375 
Q 31.15625 6.109375 34.5625 8.28125 
Q 37.984375 10.453125 37.984375 14.40625 
Q 37.984375 18.0625 35.515625 20.015625 
Q 33.0625 21.96875 24.703125 23.78125 
L 21.578125 24.515625 
Q 13.234375 26.265625 9.515625 29.90625 
Q 5.8125 33.546875 5.8125 39.890625 
Q 5.8125 47.609375 11.28125 51.796875 
Q 16.75 56 26.8125 56 
Q 31.78125 56 36.171875 55.265625 
Q 40.578125 54.546875 44.28125 53.078125 
z
" id="DejaVuSans-115"/>
       </defs>
       <use xlink:href="#DejaVuSans-32"/>
       <use x="31.787109" xlink:href="#DejaVuSans-68"/>
       <use x="108.789062" xlink:href="#DejaVuSans-117"/>
       <use x="172.167969" xlink:href="#DejaVuSans-107"/>
       <use x="226.453125" xlink:href="#DejaVuSans-101"/>
       <use x="287.976562" xlink:href="#DejaVuSans-32"/>
       <use x="319.763672" xlink:href="#DejaVuSans-118"/>
       <use x="371.193359" xlink:href="#DejaVuSans-46"/>
       <use x="402.980469" xlink:href="#DejaVuSans-32"/>
       <use x="434.767578" xlink:href="#DejaVuSans-32"/>
       <use x="466.554688" xlink:href="#DejaVuSans-83"/>
       <use x="530.03125" xlink:href="#DejaVuSans-121"/>
       <use x="589.210938" xlink:href="#DejaVuSans-114"/>
       <use x="630.324219" xlink:href="#DejaVuSans-97"/>
       <use x="691.603516" xlink:href="#DejaVuSans-99"/>
       <use x="746.583984" xlink:href="#DejaVuSans-117"/>
       <use x="809.962891" xlink:href="#DejaVuSans-115"/>
       <use x="862.0625" xlink:href="#DejaVuSans-101"/>
      </g>
     </g>
    </g>
    <g id="ytick_2">
     <g id="text_8">
      <!--  Virginia v.  North_Carolina -->
      <g transform="translate(51.551563 1001.024494)scale(0.14 -0.14)">
       <defs>
        <path d="M 28.609375 0 
L 0.78125 72.90625 
L 11.078125 72.90625 
L 34.1875 11.53125 
L 57.328125 72.90625 
L 67.578125 72.90625 
L 39.796875 0 
z
" id="DejaVuSans-86"/>
        <path d="M 9.421875 54.6875 
L 18.40625 54.6875 
L 18.40625 0 
L 9.421875 0 
z
M 9.421875 75.984375 
L 18.40625 75.984375 
L 18.40625 64.59375 
L 9.421875 64.59375 
z
" id="DejaVuSans-105"/>
        <path d="M 45.40625 27.984375 
Q 45.40625 37.75 41.375 43.109375 
Q 37.359375 48.484375 30.078125 48.484375 
Q 22.859375 48.484375 18.828125 43.109375 
Q 14.796875 37.75 14.796875 27.984375 
Q 14.796875 18.265625 18.828125 12.890625 
Q 22.859375 7.515625 30.078125 7.515625 
Q 37.359375 7.515625 41.375 12.890625 
Q 45.40625 18.265625 45.40625 27.984375 
z
M 54.390625 6.78125 
Q 54.390625 -7.171875 48.1875 -13.984375 
Q 42 -20.796875 29.203125 -20.796875 
Q 24.46875 -20.796875 20.265625 -20.09375 
Q 16.0625 -19.390625 12.109375 -17.921875 
L 12.109375 -9.1875 
Q 16.0625 -11.328125 19.921875 -12.34375 
Q 23.78125 -13.375 27.78125 -13.375 
Q 36.625 -13.375 41.015625 -8.765625 
Q 45.40625 -4.15625 45.40625 5.171875 
L 45.40625 9.625 
Q 42.625 4.78125 38.28125 2.390625 
Q 33.9375 0 27.875 0 
Q 17.828125 0 11.671875 7.65625 
Q 5.515625 15.328125 5.515625 27.984375 
Q 5.515625 40.671875 11.671875 48.328125 
Q 17.828125 56 27.875 56 
Q 33.9375 56 38.28125 53.609375 
Q 42.625 51.21875 45.40625 46.390625 
L 45.40625 54.6875 
L 54.390625 54.6875 
z
" id="DejaVuSans-103"/>
        <path d="M 54.890625 33.015625 
L 54.890625 0 
L 45.90625 0 
L 45.90625 32.71875 
Q 45.90625 40.484375 42.875 44.328125 
Q 39.84375 48.1875 33.796875 48.1875 
Q 26.515625 48.1875 22.3125 43.546875 
Q 18.109375 38.921875 18.109375 30.90625 
L 18.109375 0 
L 9.078125 0 
L 9.078125 54.6875 
L 18.109375 54.6875 
L 18.109375 46.1875 
Q 21.34375 51.125 25.703125 53.5625 
Q 30.078125 56 35.796875 56 
Q 45.21875 56 50.046875 50.171875 
Q 54.890625 44.34375 54.890625 33.015625 
z
" id="DejaVuSans-110"/>
        <path d="M 9.8125 72.90625 
L 23.09375 72.90625 
L 55.421875 11.921875 
L 55.421875 72.90625 
L 64.984375 72.90625 
L 64.984375 0 
L 51.703125 0 
L 19.390625 60.984375 
L 19.390625 0 
L 9.8125 0 
z
" id="DejaVuSans-78"/>
        <path d="M 30.609375 48.390625 
Q 23.390625 48.390625 19.1875 42.75 
Q 14.984375 37.109375 14.984375 27.296875 
Q 14.984375 17.484375 19.15625 11.84375 
Q 23.34375 6.203125 30.609375 6.203125 
Q 37.796875 6.203125 41.984375 11.859375 
Q 46.1875 17.53125 46.1875 27.296875 
Q 46.1875 37.015625 41.984375 42.703125 
Q 37.796875 48.390625 30.609375 48.390625 
z
M 30.609375 56 
Q 42.328125 56 49.015625 48.375 
Q 55.71875 40.765625 55.71875 27.296875 
Q 55.71875 13.875 49.015625 6.21875 
Q 42.328125 -1.421875 30.609375 -1.421875 
Q 18.84375 -1.421875 12.171875 6.21875 
Q 5.515625 13.875 5.515625 27.296875 
Q 5.515625 40.765625 12.171875 48.375 
Q 18.84375 56 30.609375 56 
z
" id="DejaVuSans-111"/>
        <path d="M 18.3125 70.21875 
L 18.3125 54.6875 
L 36.8125 54.6875 
L 36.8125 47.703125 
L 18.3125 47.703125 
L 18.3125 18.015625 
Q 18.3125 11.328125 20.140625 9.421875 
Q 21.96875 7.515625 27.59375 7.515625 
L 36.8125 7.515625 
L 36.8125 0 
L 27.59375 0 
Q 17.1875 0 13.234375 3.875 
Q 9.28125 7.765625 9.28125 18.015625 
L 9.28125 47.703125 
L 2.6875 47.703125 
L 2.6875 54.6875 
L 9.28125 54.6875 
L 9.28125 70.21875 
z
" id="DejaVuSans-116"/>
        <path d="M 54.890625 33.015625 
L 54.890625 0 
L 45.90625 0 
L 45.90625 32.71875 
Q 45.90625 40.484375 42.875 44.328125 
Q 39.84375 48.1875 33.796875 48.1875 
Q 26.515625 48.1875 22.3125 43.546875 
Q 18.109375 38.921875 18.109375 30.90625 
L 18.109375 0 
L 9.078125 0 
L 9.078125 75.984375 
L 18.109375 75.984375 
L 18.109375 46.1875 
Q 21.34375 51.125 25.703125 53.5625 
Q 30.078125 56 35.796875 56 
Q 45.21875 56 50.046875 50.171875 
Q 54.890625 44.34375 54.890625 33.015625 
z
" id="DejaVuSans-104"/>
        <path d="M 50.984375 -16.609375 
L 50.984375 -23.578125 
L -0.984375 -23.578125 
L -0.984375 -16.609375 
z
" id="DejaVuSans-95"/>
        <path d="M 64.40625 67.28125 
L 64.40625 56.890625 
Q 59.421875 61.53125 53.78125 63.8125 
Q 48.140625 66.109375 41.796875 66.109375 
Q 29.296875 66.109375 22.65625 58.46875 
Q 16.015625 50.828125 16.015625 36.375 
Q 16.015625 21.96875 22.65625 14.328125 
Q 29.296875 6.6875 41.796875 6.6875 
Q 48.140625 6.6875 53.78125 8.984375 
Q 59.421875 11.28125 64.40625 15.921875 
L 64.40625 5.609375 
Q 59.234375 2.09375 53.4375 0.328125 
Q 47.65625 -1.421875 41.21875 -1.421875 
Q 24.65625 -1.421875 15.125 8.703125 
Q 5.609375 18.84375 5.609375 36.375 
Q 5.609375 53.953125 15.125 64.078125 
Q 24.65625 74.21875 41.21875 74.21875 
Q 47.75 74.21875 53.53125 72.484375 
Q 59.328125 70.75 64.40625 67.28125 
z
" id="DejaVuSans-67"/>
        <path d="M 9.421875 75.984375 
L 18.40625 75.984375 
L 18.40625 0 
L 9.421875 0 
z
" id="DejaVuSans-108"/>
       </defs>
       <use xlink:href="#DejaVuSans-32"/>
       <use x="31.787109" xlink:href="#DejaVuSans-86"/>
       <use x="97.945312" xlink:href="#DejaVuSans-105"/>
       <use x="125.728516" xlink:href="#DejaVuSans-114"/>
       <use x="165.091797" xlink:href="#DejaVuSans-103"/>
       <use x="228.568359" xlink:href="#DejaVuSans-105"/>
       <use x="256.351562" xlink:href="#DejaVuSans-110"/>
       <use x="319.730469" xlink:href="#DejaVuSans-105"/>
       <use x="347.513672" xlink:href="#DejaVuSans-97"/>
       <use x="408.792969" xlink:href="#DejaVuSans-32"/>
       <use x="440.580078" xlink:href="#DejaVuSans-118"/>
       <use x="492.009766" xlink:href="#DejaVuSans-46"/>
       <use x="523.796875" xlink:href="#DejaVuSans-32"/>
       <use x="555.583984" xlink:href="#DejaVuSans-32"/>
       <use x="587.371094" xlink:href="#DejaVuSans-78"/>
       <use x="662.175781" xlink:href="#DejaVuSans-111"/>
       <use x="723.357422" xlink:href="#DejaVuSans-114"/>
       <use x="764.470703" xlink:href="#DejaVuSans-116"/>
       <use x="803.679688" xlink:href="#DejaVuSans-104"/>
       <use x="867.058594" xlink:href="#DejaVuSans-95"/>
       <use x="917.058594" xlink:href="#DejaVuSans-67"/>
       <use x="986.882812" xlink:href="#DejaVuSans-97"/>
       <use x="1048.162109" xlink:href="#DejaVuSans-114"/>
       <use x="1087.025391" xlink:href="#DejaVuSans-111"/>
       <use x="1148.207031" xlink:href="#DejaVuSans-108"/>
       <use x="1175.990234" xlink:href="#DejaVuSans-105"/>
       <use x="1203.773438" xlink:href="#DejaVuSans-110"/>
       <use x="1267.152344" xlink:href="#DejaVuSans-97"/>
      </g>
     </g>
    </g>
    <g id="ytick_3">
     <g id="text_9">
      <!--  North_Carolina v.  Duke -->
      <g transform="translate(68.465313 959.001545)scale(0.14 -0.14)">
       <use xlink:href="#DejaVuSans-32"/>
       <use x="31.787109" xlink:href="#DejaVuSans-78"/>
       <use x="106.591797" xlink:href="#DejaVuSans-111"/>
       <use x="167.773438" xlink:href="#DejaVuSans-114"/>
       <use x="208.886719" xlink:href="#DejaVuSans-116"/>
       <use x="248.095703" xlink:href="#DejaVuSans-104"/>
       <use x="311.474609" xlink:href="#DejaVuSans-95"/>
       <use x="361.474609" xlink:href="#DejaVuSans-67"/>
       <use x="431.298828" xlink:href="#DejaVuSans-97"/>
       <use x="492.578125" xlink:href="#DejaVuSans-114"/>
       <use x="531.441406" xlink:href="#DejaVuSans-111"/>
       <use x="592.623047" xlink:href="#DejaVuSans-108"/>
       <use x="620.40625" xlink:href="#DejaVuSans-105"/>
       <use x="648.189453" xlink:href="#DejaVuSans-110"/>
       <use x="711.568359" xlink:href="#DejaVuSans-97"/>
       <use x="772.847656" xlink:href="#DejaVuSans-32"/>
       <use x="804.634766" xlink:href="#DejaVuSans-118"/>
       <use x="856.064453" xlink:href="#DejaVuSans-46"/>
       <use x="887.851562" xlink:href="#DejaVuSans-32"/>
       <use x="919.638672" xlink:href="#DejaVuSans-32"/>
       <use x="951.425781" xlink:href="#DejaVuSans-68"/>
       <use x="1028.427734" xlink:href="#DejaVuSans-117"/>
       <use x="1091.806641" xlink:href="#DejaVuSans-107"/>
       <use x="1146.091797" xlink:href="#DejaVuSans-101"/>
      </g>
     </g>
    </g>
    <g id="ytick_4">
     <g id="text_10">
      <!--  Virginia v.  Clemson -->
      <g transform="translate(94.651875 916.978597)scale(0.14 -0.14)">
       <defs>
        <path d="M 52 44.1875 
Q 55.375 50.25 60.0625 53.125 
Q 64.75 56 71.09375 56 
Q 79.640625 56 84.28125 50.015625 
Q 88.921875 44.046875 88.921875 33.015625 
L 88.921875 0 
L 79.890625 0 
L 79.890625 32.71875 
Q 79.890625 40.578125 77.09375 44.375 
Q 74.3125 48.1875 68.609375 48.1875 
Q 61.625 48.1875 57.5625 43.546875 
Q 53.515625 38.921875 53.515625 30.90625 
L 53.515625 0 
L 44.484375 0 
L 44.484375 32.71875 
Q 44.484375 40.625 41.703125 44.40625 
Q 38.921875 48.1875 33.109375 48.1875 
Q 26.21875 48.1875 22.15625 43.53125 
Q 18.109375 38.875 18.109375 30.90625 
L 18.109375 0 
L 9.078125 0 
L 9.078125 54.6875 
L 18.109375 54.6875 
L 18.109375 46.1875 
Q 21.1875 51.21875 25.484375 53.609375 
Q 29.78125 56 35.6875 56 
Q 41.65625 56 45.828125 52.96875 
Q 50 49.953125 52 44.1875 
z
" id="DejaVuSans-109"/>
       </defs>
       <use xlink:href="#DejaVuSans-32"/>
       <use x="31.787109" xlink:href="#DejaVuSans-86"/>
       <use x="97.945312" xlink:href="#DejaVuSans-105"/>
       <use x="125.728516" xlink:href="#DejaVuSans-114"/>
       <use x="165.091797" xlink:href="#DejaVuSans-103"/>
       <use x="228.568359" xlink:href="#DejaVuSans-105"/>
       <use x="256.351562" xlink:href="#DejaVuSans-110"/>
       <use x="319.730469" xlink:href="#DejaVuSans-105"/>
       <use x="347.513672" xlink:href="#DejaVuSans-97"/>
       <use x="408.792969" xlink:href="#DejaVuSans-32"/>
       <use x="440.580078" xlink:href="#DejaVuSans-118"/>
       <use x="492.009766" xlink:href="#DejaVuSans-46"/>
       <use x="523.796875" xlink:href="#DejaVuSans-32"/>
       <use x="555.583984" xlink:href="#DejaVuSans-32"/>
       <use x="587.371094" xlink:href="#DejaVuSans-67"/>
       <use x="657.195312" xlink:href="#DejaVuSans-108"/>
       <use x="684.978516" xlink:href="#DejaVuSans-101"/>
       <use x="746.501953" xlink:href="#DejaVuSans-109"/>
       <use x="843.914062" xlink:href="#DejaVuSans-115"/>
       <use x="896.013672" xlink:href="#DejaVuSans-111"/>
       <use x="957.195312" xlink:href="#DejaVuSans-110"/>
      </g>
     </g>
    </g>
    <g id="ytick_5">
     <g id="text_11">
      <!--  North_Carolina v.  Miami_FL -->
      <g transform="translate(39.404375 874.955648)scale(0.14 -0.14)">
       <defs>
        <path d="M 9.8125 72.90625 
L 24.515625 72.90625 
L 43.109375 23.296875 
L 61.8125 72.90625 
L 76.515625 72.90625 
L 76.515625 0 
L 66.890625 0 
L 66.890625 64.015625 
L 48.09375 14.015625 
L 38.1875 14.015625 
L 19.390625 64.015625 
L 19.390625 0 
L 9.8125 0 
z
" id="DejaVuSans-77"/>
        <path d="M 9.8125 72.90625 
L 51.703125 72.90625 
L 51.703125 64.59375 
L 19.671875 64.59375 
L 19.671875 43.109375 
L 48.578125 43.109375 
L 48.578125 34.8125 
L 19.671875 34.8125 
L 19.671875 0 
L 9.8125 0 
z
" id="DejaVuSans-70"/>
        <path d="M 9.8125 72.90625 
L 19.671875 72.90625 
L 19.671875 8.296875 
L 55.171875 8.296875 
L 55.171875 0 
L 9.8125 0 
z
" id="DejaVuSans-76"/>
       </defs>
       <use xlink:href="#DejaVuSans-32"/>
       <use x="31.787109" xlink:href="#DejaVuSans-78"/>
       <use x="106.591797" xlink:href="#DejaVuSans-111"/>
       <use x="167.773438" xlink:href="#DejaVuSans-114"/>
       <use x="208.886719" xlink:href="#DejaVuSans-116"/>
       <use x="248.095703" xlink:href="#DejaVuSans-104"/>
       <use x="311.474609" xlink:href="#DejaVuSans-95"/>
       <use x="361.474609" xlink:href="#DejaVuSans-67"/>
       <use x="431.298828" xlink:href="#DejaVuSans-97"/>
       <use x="492.578125" xlink:href="#DejaVuSans-114"/>
       <use x="531.441406" xlink:href="#DejaVuSans-111"/>
       <use x="592.623047" xlink:href="#DejaVuSans-108"/>
       <use x="620.40625" xlink:href="#DejaVuSans-105"/>
       <use x="648.189453" xlink:href="#DejaVuSans-110"/>
       <use x="711.568359" xlink:href="#DejaVuSans-97"/>
       <use x="772.847656" xlink:href="#DejaVuSans-32"/>
       <use x="804.634766" xlink:href="#DejaVuSans-118"/>
       <use x="856.064453" xlink:href="#DejaVuSans-46"/>
       <use x="887.851562" xlink:href="#DejaVuSans-32"/>
       <use x="919.638672" xlink:href="#DejaVuSans-32"/>
       <use x="951.425781" xlink:href="#DejaVuSans-77"/>
       <use x="1037.705078" xlink:href="#DejaVuSans-105"/>
       <use x="1065.488281" xlink:href="#DejaVuSans-97"/>
       <use x="1126.767578" xlink:href="#DejaVuSans-109"/>
       <use x="1224.179688" xlink:href="#DejaVuSans-105"/>
       <use x="1251.962891" xlink:href="#DejaVuSans-95"/>
       <use x="1301.962891" xlink:href="#DejaVuSans-70"/>
       <use x="1359.482422" xlink:href="#DejaVuSans-76"/>
      </g>
     </g>
    </g>
    <g id="ytick_6">
     <g id="text_12">
      <!--  Duke v.  Notre_Dame -->
      <g transform="translate(85.020313 832.932699)scale(0.14 -0.14)">
       <use xlink:href="#DejaVuSans-32"/>
       <use x="31.787109" xlink:href="#DejaVuSans-68"/>
       <use x="108.789062" xlink:href="#DejaVuSans-117"/>
       <use x="172.167969" xlink:href="#DejaVuSans-107"/>
       <use x="226.453125" xlink:href="#DejaVuSans-101"/>
       <use x="287.976562" xlink:href="#DejaVuSans-32"/>
       <use x="319.763672" xlink:href="#DejaVuSans-118"/>
       <use x="371.193359" xlink:href="#DejaVuSans-46"/>
       <use x="402.980469" xlink:href="#DejaVuSans-32"/>
       <use x="434.767578" xlink:href="#DejaVuSans-32"/>
       <use x="466.554688" xlink:href="#DejaVuSans-78"/>
       <use x="541.359375" xlink:href="#DejaVuSans-111"/>
       <use x="602.541016" xlink:href="#DejaVuSans-116"/>
       <use x="641.75" xlink:href="#DejaVuSans-114"/>
       <use x="680.613281" xlink:href="#DejaVuSans-101"/>
       <use x="742.136719" xlink:href="#DejaVuSans-95"/>
       <use x="792.136719" xlink:href="#DejaVuSans-68"/>
       <use x="869.138672" xlink:href="#DejaVuSans-97"/>
       <use x="930.417969" xlink:href="#DejaVuSans-109"/>
       <use x="1027.830078" xlink:href="#DejaVuSans-101"/>
      </g>
     </g>
    </g>
    <g id="ytick_7">
     <g id="text_13">
      <!--  Clemson v.  Boston_College -->
      <g transform="translate(39.8025 790.909751)scale(0.14 -0.14)">
       <defs>
        <path d="M 19.671875 34.8125 
L 19.671875 8.109375 
L 35.5 8.109375 
Q 43.453125 8.109375 47.28125 11.40625 
Q 51.125 14.703125 51.125 21.484375 
Q 51.125 28.328125 47.28125 31.5625 
Q 43.453125 34.8125 35.5 34.8125 
z
M 19.671875 64.796875 
L 19.671875 42.828125 
L 34.28125 42.828125 
Q 41.5 42.828125 45.03125 45.53125 
Q 48.578125 48.25 48.578125 53.8125 
Q 48.578125 59.328125 45.03125 62.0625 
Q 41.5 64.796875 34.28125 64.796875 
z
M 9.8125 72.90625 
L 35.015625 72.90625 
Q 46.296875 72.90625 52.390625 68.21875 
Q 58.5 63.53125 58.5 54.890625 
Q 58.5 48.1875 55.375 44.234375 
Q 52.25 40.28125 46.1875 39.3125 
Q 53.46875 37.75 57.5 32.78125 
Q 61.53125 27.828125 61.53125 20.40625 
Q 61.53125 10.640625 54.890625 5.3125 
Q 48.25 0 35.984375 0 
L 9.8125 0 
z
" id="DejaVuSans-66"/>
       </defs>
       <use xlink:href="#DejaVuSans-32"/>
       <use x="31.787109" xlink:href="#DejaVuSans-67"/>
       <use x="101.611328" xlink:href="#DejaVuSans-108"/>
       <use x="129.394531" xlink:href="#DejaVuSans-101"/>
       <use x="190.917969" xlink:href="#DejaVuSans-109"/>
       <use x="288.330078" xlink:href="#DejaVuSans-115"/>
       <use x="340.429688" xlink:href="#DejaVuSans-111"/>
       <use x="401.611328" xlink:href="#DejaVuSans-110"/>
       <use x="464.990234" xlink:href="#DejaVuSans-32"/>
       <use x="496.777344" xlink:href="#DejaVuSans-118"/>
       <use x="548.207031" xlink:href="#DejaVuSans-46"/>
       <use x="579.994141" xlink:href="#DejaVuSans-32"/>
       <use x="611.78125" xlink:href="#DejaVuSans-32"/>
       <use x="643.568359" xlink:href="#DejaVuSans-66"/>
       <use x="712.171875" xlink:href="#DejaVuSans-111"/>
       <use x="773.353516" xlink:href="#DejaVuSans-115"/>
       <use x="825.453125" xlink:href="#DejaVuSans-116"/>
       <use x="864.662109" xlink:href="#DejaVuSans-111"/>
       <use x="925.84375" xlink:href="#DejaVuSans-110"/>
       <use x="989.222656" xlink:href="#DejaVuSans-95"/>
       <use x="1039.222656" xlink:href="#DejaVuSans-67"/>
       <use x="1109.046875" xlink:href="#DejaVuSans-111"/>
       <use x="1170.228516" xlink:href="#DejaVuSans-108"/>
       <use x="1198.011719" xlink:href="#DejaVuSans-108"/>
       <use x="1225.794922" xlink:href="#DejaVuSans-101"/>
       <use x="1287.318359" xlink:href="#DejaVuSans-103"/>
       <use x="1350.794922" xlink:href="#DejaVuSans-101"/>
      </g>
     </g>
    </g>
    <g id="ytick_8">
     <g id="text_14">
      <!--  Virginia v.  Louisville -->
      <g transform="translate(90.554688 748.886802)scale(0.14 -0.14)">
       <use xlink:href="#DejaVuSans-32"/>
       <use x="31.787109" xlink:href="#DejaVuSans-86"/>
       <use x="97.945312" xlink:href="#DejaVuSans-105"/>
       <use x="125.728516" xlink:href="#DejaVuSans-114"/>
       <use x="165.091797" xlink:href="#DejaVuSans-103"/>
       <use x="228.568359" xlink:href="#DejaVuSans-105"/>
       <use x="256.351562" xlink:href="#DejaVuSans-110"/>
       <use x="319.730469" xlink:href="#DejaVuSans-105"/>
       <use x="347.513672" xlink:href="#DejaVuSans-97"/>
       <use x="408.792969" xlink:href="#DejaVuSans-32"/>
       <use x="440.580078" xlink:href="#DejaVuSans-118"/>
       <use x="492.009766" xlink:href="#DejaVuSans-46"/>
       <use x="523.796875" xlink:href="#DejaVuSans-32"/>
       <use x="555.583984" xlink:href="#DejaVuSans-32"/>
       <use x="587.371094" xlink:href="#DejaVuSans-76"/>
       <use x="641.333984" xlink:href="#DejaVuSans-111"/>
       <use x="702.515625" xlink:href="#DejaVuSans-117"/>
       <use x="765.894531" xlink:href="#DejaVuSans-105"/>
       <use x="793.677734" xlink:href="#DejaVuSans-115"/>
       <use x="845.777344" xlink:href="#DejaVuSans-118"/>
       <use x="904.957031" xlink:href="#DejaVuSans-105"/>
       <use x="932.740234" xlink:href="#DejaVuSans-108"/>
       <use x="960.523438" xlink:href="#DejaVuSans-108"/>
       <use x="988.306641" xlink:href="#DejaVuSans-101"/>
      </g>
     </g>
    </g>
    <g id="ytick_9">
     <g id="text_15">
      <!--  Boston_College v.  NC_State -->
      <g transform="translate(36.142812 706.863853)scale(0.14 -0.14)">
       <use xlink:href="#DejaVuSans-32"/>
       <use x="31.787109" xlink:href="#DejaVuSans-66"/>
       <use x="100.390625" xlink:href="#DejaVuSans-111"/>
       <use x="161.572266" xlink:href="#DejaVuSans-115"/>
       <use x="213.671875" xlink:href="#DejaVuSans-116"/>
       <use x="252.880859" xlink:href="#DejaVuSans-111"/>
       <use x="314.0625" xlink:href="#DejaVuSans-110"/>
       <use x="377.441406" xlink:href="#DejaVuSans-95"/>
       <use x="427.441406" xlink:href="#DejaVuSans-67"/>
       <use x="497.265625" xlink:href="#DejaVuSans-111"/>
       <use x="558.447266" xlink:href="#DejaVuSans-108"/>
       <use x="586.230469" xlink:href="#DejaVuSans-108"/>
       <use x="614.013672" xlink:href="#DejaVuSans-101"/>
       <use x="675.537109" xlink:href="#DejaVuSans-103"/>
       <use x="739.013672" xlink:href="#DejaVuSans-101"/>
       <use x="800.537109" xlink:href="#DejaVuSans-32"/>
       <use x="832.324219" xlink:href="#DejaVuSans-118"/>
       <use x="883.753906" xlink:href="#DejaVuSans-46"/>
       <use x="915.541016" xlink:href="#DejaVuSans-32"/>
       <use x="947.328125" xlink:href="#DejaVuSans-32"/>
       <use x="979.115234" xlink:href="#DejaVuSans-78"/>
       <use x="1053.919922" xlink:href="#DejaVuSans-67"/>
       <use x="1123.744141" xlink:href="#DejaVuSans-95"/>
       <use x="1173.744141" xlink:href="#DejaVuSans-83"/>
       <use x="1237.220703" xlink:href="#DejaVuSans-116"/>
       <use x="1276.429688" xlink:href="#DejaVuSans-97"/>
       <use x="1337.708984" xlink:href="#DejaVuSans-116"/>
       <use x="1376.917969" xlink:href="#DejaVuSans-101"/>
      </g>
     </g>
    </g>
    <g id="ytick_10">
     <g id="text_16">
      <!--  North_Carolina v.  Syracuse -->
      <g transform="translate(40.345 664.840905)scale(0.14 -0.14)">
       <use xlink:href="#DejaVuSans-32"/>
       <use x="31.787109" xlink:href="#DejaVuSans-78"/>
       <use x="106.591797" xlink:href="#DejaVuSans-111"/>
       <use x="167.773438" xlink:href="#DejaVuSans-114"/>
       <use x="208.886719" xlink:href="#DejaVuSans-116"/>
       <use x="248.095703" xlink:href="#DejaVuSans-104"/>
       <use x="311.474609" xlink:href="#DejaVuSans-95"/>
       <use x="361.474609" xlink:href="#DejaVuSans-67"/>
       <use x="431.298828" xlink:href="#DejaVuSans-97"/>
       <use x="492.578125" xlink:href="#DejaVuSans-114"/>
       <use x="531.441406" xlink:href="#DejaVuSans-111"/>
       <use x="592.623047" xlink:href="#DejaVuSans-108"/>
       <use x="620.40625" xlink:href="#DejaVuSans-105"/>
       <use x="648.189453" xlink:href="#DejaVuSans-110"/>
       <use x="711.568359" xlink:href="#DejaVuSans-97"/>
       <use x="772.847656" xlink:href="#DejaVuSans-32"/>
       <use x="804.634766" xlink:href="#DejaVuSans-118"/>
       <use x="856.064453" xlink:href="#DejaVuSans-46"/>
       <use x="887.851562" xlink:href="#DejaVuSans-32"/>
       <use x="919.638672" xlink:href="#DejaVuSans-32"/>
       <use x="951.425781" xlink:href="#DejaVuSans-83"/>
       <use x="1014.902344" xlink:href="#DejaVuSans-121"/>
       <use x="1074.082031" xlink:href="#DejaVuSans-114"/>
       <use x="1115.195312" xlink:href="#DejaVuSans-97"/>
       <use x="1176.474609" xlink:href="#DejaVuSans-99"/>
       <use x="1231.455078" xlink:href="#DejaVuSans-117"/>
       <use x="1294.833984" xlink:href="#DejaVuSans-115"/>
       <use x="1346.933594" xlink:href="#DejaVuSans-101"/>
      </g>
     </g>
    </g>
    <g id="ytick_11">
     <g id="text_17">
      <!--  Notre_Dame v.  Virginia_Tech -->
      <g transform="translate(29.750937 622.817956)scale(0.14 -0.14)">
       <defs>
        <path d="M -0.296875 72.90625 
L 61.375 72.90625 
L 61.375 64.59375 
L 35.5 64.59375 
L 35.5 0 
L 25.59375 0 
L 25.59375 64.59375 
L -0.296875 64.59375 
z
" id="DejaVuSans-84"/>
       </defs>
       <use xlink:href="#DejaVuSans-32"/>
       <use x="31.787109" xlink:href="#DejaVuSans-78"/>
       <use x="106.591797" xlink:href="#DejaVuSans-111"/>
       <use x="167.773438" xlink:href="#DejaVuSans-116"/>
       <use x="206.982422" xlink:href="#DejaVuSans-114"/>
       <use x="245.845703" xlink:href="#DejaVuSans-101"/>
       <use x="307.369141" xlink:href="#DejaVuSans-95"/>
       <use x="357.369141" xlink:href="#DejaVuSans-68"/>
       <use x="434.371094" xlink:href="#DejaVuSans-97"/>
       <use x="495.650391" xlink:href="#DejaVuSans-109"/>
       <use x="593.0625" xlink:href="#DejaVuSans-101"/>
       <use x="654.585938" xlink:href="#DejaVuSans-32"/>
       <use x="686.373047" xlink:href="#DejaVuSans-118"/>
       <use x="737.802734" xlink:href="#DejaVuSans-46"/>
       <use x="769.589844" xlink:href="#DejaVuSans-32"/>
       <use x="801.376953" xlink:href="#DejaVuSans-32"/>
       <use x="833.164062" xlink:href="#DejaVuSans-86"/>
       <use x="899.322266" xlink:href="#DejaVuSans-105"/>
       <use x="927.105469" xlink:href="#DejaVuSans-114"/>
       <use x="966.46875" xlink:href="#DejaVuSans-103"/>
       <use x="1029.945312" xlink:href="#DejaVuSans-105"/>
       <use x="1057.728516" xlink:href="#DejaVuSans-110"/>
       <use x="1121.107422" xlink:href="#DejaVuSans-105"/>
       <use x="1148.890625" xlink:href="#DejaVuSans-97"/>
       <use x="1210.169922" xlink:href="#DejaVuSans-95"/>
       <use x="1260.169922" xlink:href="#DejaVuSans-84"/>
       <use x="1304.253906" xlink:href="#DejaVuSans-101"/>
       <use x="1365.777344" xlink:href="#DejaVuSans-99"/>
       <use x="1420.757812" xlink:href="#DejaVuSans-104"/>
      </g>
     </g>
    </g>
    <g id="ytick_12">
     <g id="text_18">
      <!--  Louisville v.  Florida_St -->
      <g transform="translate(74.33875 580.795007)scale(0.14 -0.14)">
       <defs>
        <path d="M 45.40625 46.390625 
L 45.40625 75.984375 
L 54.390625 75.984375 
L 54.390625 0 
L 45.40625 0 
L 45.40625 8.203125 
Q 42.578125 3.328125 38.25 0.953125 
Q 33.9375 -1.421875 27.875 -1.421875 
Q 17.96875 -1.421875 11.734375 6.484375 
Q 5.515625 14.40625 5.515625 27.296875 
Q 5.515625 40.1875 11.734375 48.09375 
Q 17.96875 56 27.875 56 
Q 33.9375 56 38.25 53.625 
Q 42.578125 51.265625 45.40625 46.390625 
z
M 14.796875 27.296875 
Q 14.796875 17.390625 18.875 11.75 
Q 22.953125 6.109375 30.078125 6.109375 
Q 37.203125 6.109375 41.296875 11.75 
Q 45.40625 17.390625 45.40625 27.296875 
Q 45.40625 37.203125 41.296875 42.84375 
Q 37.203125 48.484375 30.078125 48.484375 
Q 22.953125 48.484375 18.875 42.84375 
Q 14.796875 37.203125 14.796875 27.296875 
z
" id="DejaVuSans-100"/>
       </defs>
       <use xlink:href="#DejaVuSans-32"/>
       <use x="31.787109" xlink:href="#DejaVuSans-76"/>
       <use x="85.75" xlink:href="#DejaVuSans-111"/>
       <use x="146.931641" xlink:href="#DejaVuSans-117"/>
       <use x="210.310547" xlink:href="#DejaVuSans-105"/>
       <use x="238.09375" xlink:href="#DejaVuSans-115"/>
       <use x="290.193359" xlink:href="#DejaVuSans-118"/>
       <use x="349.373047" xlink:href="#DejaVuSans-105"/>
       <use x="377.15625" xlink:href="#DejaVuSans-108"/>
       <use x="404.939453" xlink:href="#DejaVuSans-108"/>
       <use x="432.722656" xlink:href="#DejaVuSans-101"/>
       <use x="494.246094" xlink:href="#DejaVuSans-32"/>
       <use x="526.033203" xlink:href="#DejaVuSans-118"/>
       <use x="577.462891" xlink:href="#DejaVuSans-46"/>
       <use x="609.25" xlink:href="#DejaVuSans-32"/>
       <use x="641.037109" xlink:href="#DejaVuSans-32"/>
       <use x="672.824219" xlink:href="#DejaVuSans-70"/>
       <use x="730.34375" xlink:href="#DejaVuSans-108"/>
       <use x="758.126953" xlink:href="#DejaVuSans-111"/>
       <use x="819.308594" xlink:href="#DejaVuSans-114"/>
       <use x="860.421875" xlink:href="#DejaVuSans-105"/>
       <use x="888.205078" xlink:href="#DejaVuSans-100"/>
       <use x="951.681641" xlink:href="#DejaVuSans-97"/>
       <use x="1012.960938" xlink:href="#DejaVuSans-95"/>
       <use x="1062.960938" xlink:href="#DejaVuSans-83"/>
       <use x="1126.4375" xlink:href="#DejaVuSans-116"/>
      </g>
     </g>
    </g>
    <g id="ytick_13">
     <g id="text_19">
      <!--  Syracuse v.  Wake_Forest -->
      <g transform="translate(56.403437 538.772059)scale(0.14 -0.14)">
       <defs>
        <path d="M 3.328125 72.90625 
L 13.28125 72.90625 
L 28.609375 11.28125 
L 43.890625 72.90625 
L 54.984375 72.90625 
L 70.3125 11.28125 
L 85.59375 72.90625 
L 95.609375 72.90625 
L 77.296875 0 
L 64.890625 0 
L 49.515625 63.28125 
L 33.984375 0 
L 21.578125 0 
z
" id="DejaVuSans-87"/>
       </defs>
       <use xlink:href="#DejaVuSans-32"/>
       <use x="31.787109" xlink:href="#DejaVuSans-83"/>
       <use x="95.263672" xlink:href="#DejaVuSans-121"/>
       <use x="154.443359" xlink:href="#DejaVuSans-114"/>
       <use x="195.556641" xlink:href="#DejaVuSans-97"/>
       <use x="256.835938" xlink:href="#DejaVuSans-99"/>
       <use x="311.816406" xlink:href="#DejaVuSans-117"/>
       <use x="375.195312" xlink:href="#DejaVuSans-115"/>
       <use x="427.294922" xlink:href="#DejaVuSans-101"/>
       <use x="488.818359" xlink:href="#DejaVuSans-32"/>
       <use x="520.605469" xlink:href="#DejaVuSans-118"/>
       <use x="572.035156" xlink:href="#DejaVuSans-46"/>
       <use x="603.822266" xlink:href="#DejaVuSans-32"/>
       <use x="635.609375" xlink:href="#DejaVuSans-32"/>
       <use x="667.396484" xlink:href="#DejaVuSans-87"/>
       <use x="759.898438" xlink:href="#DejaVuSans-97"/>
       <use x="821.177734" xlink:href="#DejaVuSans-107"/>
       <use x="875.462891" xlink:href="#DejaVuSans-101"/>
       <use x="936.986328" xlink:href="#DejaVuSans-95"/>
       <use x="986.986328" xlink:href="#DejaVuSans-70"/>
       <use x="1040.880859" xlink:href="#DejaVuSans-111"/>
       <use x="1102.0625" xlink:href="#DejaVuSans-114"/>
       <use x="1140.925781" xlink:href="#DejaVuSans-101"/>
       <use x="1202.449219" xlink:href="#DejaVuSans-115"/>
       <use x="1254.548828" xlink:href="#DejaVuSans-116"/>
      </g>
     </g>
    </g>
    <g id="ytick_14">
     <g id="text_20">
      <!--  Notre_Dame v.  Pittsburgh -->
      <g transform="translate(49.569688 496.74911)scale(0.14 -0.14)">
       <defs>
        <path d="M 19.671875 64.796875 
L 19.671875 37.40625 
L 32.078125 37.40625 
Q 38.96875 37.40625 42.71875 40.96875 
Q 46.484375 44.53125 46.484375 51.125 
Q 46.484375 57.671875 42.71875 61.234375 
Q 38.96875 64.796875 32.078125 64.796875 
z
M 9.8125 72.90625 
L 32.078125 72.90625 
Q 44.34375 72.90625 50.609375 67.359375 
Q 56.890625 61.8125 56.890625 51.125 
Q 56.890625 40.328125 50.609375 34.8125 
Q 44.34375 29.296875 32.078125 29.296875 
L 19.671875 29.296875 
L 19.671875 0 
L 9.8125 0 
z
" id="DejaVuSans-80"/>
        <path d="M 48.6875 27.296875 
Q 48.6875 37.203125 44.609375 42.84375 
Q 40.53125 48.484375 33.40625 48.484375 
Q 26.265625 48.484375 22.1875 42.84375 
Q 18.109375 37.203125 18.109375 27.296875 
Q 18.109375 17.390625 22.1875 11.75 
Q 26.265625 6.109375 33.40625 6.109375 
Q 40.53125 6.109375 44.609375 11.75 
Q 48.6875 17.390625 48.6875 27.296875 
z
M 18.109375 46.390625 
Q 20.953125 51.265625 25.265625 53.625 
Q 29.59375 56 35.59375 56 
Q 45.5625 56 51.78125 48.09375 
Q 58.015625 40.1875 58.015625 27.296875 
Q 58.015625 14.40625 51.78125 6.484375 
Q 45.5625 -1.421875 35.59375 -1.421875 
Q 29.59375 -1.421875 25.265625 0.953125 
Q 20.953125 3.328125 18.109375 8.203125 
L 18.109375 0 
L 9.078125 0 
L 9.078125 75.984375 
L 18.109375 75.984375 
z
" id="DejaVuSans-98"/>
       </defs>
       <use xlink:href="#DejaVuSans-32"/>
       <use x="31.787109" xlink:href="#DejaVuSans-78"/>
       <use x="106.591797" xlink:href="#DejaVuSans-111"/>
       <use x="167.773438" xlink:href="#DejaVuSans-116"/>
       <use x="206.982422" xlink:href="#DejaVuSans-114"/>
       <use x="245.845703" xlink:href="#DejaVuSans-101"/>
       <use x="307.369141" xlink:href="#DejaVuSans-95"/>
       <use x="357.369141" xlink:href="#DejaVuSans-68"/>
       <use x="434.371094" xlink:href="#DejaVuSans-97"/>
       <use x="495.650391" xlink:href="#DejaVuSans-109"/>
       <use x="593.0625" xlink:href="#DejaVuSans-101"/>
       <use x="654.585938" xlink:href="#DejaVuSans-32"/>
       <use x="686.373047" xlink:href="#DejaVuSans-118"/>
       <use x="737.802734" xlink:href="#DejaVuSans-46"/>
       <use x="769.589844" xlink:href="#DejaVuSans-32"/>
       <use x="801.376953" xlink:href="#DejaVuSans-32"/>
       <use x="833.164062" xlink:href="#DejaVuSans-80"/>
       <use x="891.216797" xlink:href="#DejaVuSans-105"/>
       <use x="919" xlink:href="#DejaVuSans-116"/>
       <use x="958.208984" xlink:href="#DejaVuSans-116"/>
       <use x="997.417969" xlink:href="#DejaVuSans-115"/>
       <use x="1049.517578" xlink:href="#DejaVuSans-98"/>
       <use x="1112.994141" xlink:href="#DejaVuSans-117"/>
       <use x="1176.373047" xlink:href="#DejaVuSans-114"/>
       <use x="1215.736328" xlink:href="#DejaVuSans-103"/>
       <use x="1279.212891" xlink:href="#DejaVuSans-104"/>
      </g>
     </g>
    </g>
    <g id="ytick_15">
     <g id="text_21">
      <!--  Boston_College v.  Georgia_Tech -->
      <g transform="translate(7.2 454.726161)scale(0.14 -0.14)">
       <defs>
        <path d="M 59.515625 10.40625 
L 59.515625 29.984375 
L 43.40625 29.984375 
L 43.40625 38.09375 
L 69.28125 38.09375 
L 69.28125 6.78125 
Q 63.578125 2.734375 56.6875 0.65625 
Q 49.8125 -1.421875 42 -1.421875 
Q 24.90625 -1.421875 15.25 8.5625 
Q 5.609375 18.5625 5.609375 36.375 
Q 5.609375 54.25 15.25 64.234375 
Q 24.90625 74.21875 42 74.21875 
Q 49.125 74.21875 55.546875 72.453125 
Q 61.96875 70.703125 67.390625 67.28125 
L 67.390625 56.78125 
Q 61.921875 61.421875 55.765625 63.765625 
Q 49.609375 66.109375 42.828125 66.109375 
Q 29.4375 66.109375 22.71875 58.640625 
Q 16.015625 51.171875 16.015625 36.375 
Q 16.015625 21.625 22.71875 14.15625 
Q 29.4375 6.6875 42.828125 6.6875 
Q 48.046875 6.6875 52.140625 7.59375 
Q 56.25 8.5 59.515625 10.40625 
z
" id="DejaVuSans-71"/>
       </defs>
       <use xlink:href="#DejaVuSans-32"/>
       <use x="31.787109" xlink:href="#DejaVuSans-66"/>
       <use x="100.390625" xlink:href="#DejaVuSans-111"/>
       <use x="161.572266" xlink:href="#DejaVuSans-115"/>
       <use x="213.671875" xlink:href="#DejaVuSans-116"/>
       <use x="252.880859" xlink:href="#DejaVuSans-111"/>
       <use x="314.0625" xlink:href="#DejaVuSans-110"/>
       <use x="377.441406" xlink:href="#DejaVuSans-95"/>
       <use x="427.441406" xlink:href="#DejaVuSans-67"/>
       <use x="497.265625" xlink:href="#DejaVuSans-111"/>
       <use x="558.447266" xlink:href="#DejaVuSans-108"/>
       <use x="586.230469" xlink:href="#DejaVuSans-108"/>
       <use x="614.013672" xlink:href="#DejaVuSans-101"/>
       <use x="675.537109" xlink:href="#DejaVuSans-103"/>
       <use x="739.013672" xlink:href="#DejaVuSans-101"/>
       <use x="800.537109" xlink:href="#DejaVuSans-32"/>
       <use x="832.324219" xlink:href="#DejaVuSans-118"/>
       <use x="883.753906" xlink:href="#DejaVuSans-46"/>
       <use x="915.541016" xlink:href="#DejaVuSans-32"/>
       <use x="947.328125" xlink:href="#DejaVuSans-32"/>
       <use x="979.115234" xlink:href="#DejaVuSans-71"/>
       <use x="1056.605469" xlink:href="#DejaVuSans-101"/>
       <use x="1118.128906" xlink:href="#DejaVuSans-111"/>
       <use x="1179.310547" xlink:href="#DejaVuSans-114"/>
       <use x="1218.673828" xlink:href="#DejaVuSans-103"/>
       <use x="1282.150391" xlink:href="#DejaVuSans-105"/>
       <use x="1309.933594" xlink:href="#DejaVuSans-97"/>
       <use x="1371.212891" xlink:href="#DejaVuSans-95"/>
       <use x="1421.212891" xlink:href="#DejaVuSans-84"/>
       <use x="1465.296875" xlink:href="#DejaVuSans-101"/>
       <use x="1526.820312" xlink:href="#DejaVuSans-99"/>
       <use x="1581.800781" xlink:href="#DejaVuSans-104"/>
      </g>
     </g>
    </g>
    <g id="ytick_16">
     <g id="text_22">
      <!--  Virginia v.  Notre_Dame -->
      <g transform="translate(68.106562 412.703213)scale(0.14 -0.14)">
       <use xlink:href="#DejaVuSans-32"/>
       <use x="31.787109" xlink:href="#DejaVuSans-86"/>
       <use x="97.945312" xlink:href="#DejaVuSans-105"/>
       <use x="125.728516" xlink:href="#DejaVuSans-114"/>
       <use x="165.091797" xlink:href="#DejaVuSans-103"/>
       <use x="228.568359" xlink:href="#DejaVuSans-105"/>
       <use x="256.351562" xlink:href="#DejaVuSans-110"/>
       <use x="319.730469" xlink:href="#DejaVuSans-105"/>
       <use x="347.513672" xlink:href="#DejaVuSans-97"/>
       <use x="408.792969" xlink:href="#DejaVuSans-32"/>
       <use x="440.580078" xlink:href="#DejaVuSans-118"/>
       <use x="492.009766" xlink:href="#DejaVuSans-46"/>
       <use x="523.796875" xlink:href="#DejaVuSans-32"/>
       <use x="555.583984" xlink:href="#DejaVuSans-32"/>
       <use x="587.371094" xlink:href="#DejaVuSans-78"/>
       <use x="662.175781" xlink:href="#DejaVuSans-111"/>
       <use x="723.357422" xlink:href="#DejaVuSans-116"/>
       <use x="762.566406" xlink:href="#DejaVuSans-114"/>
       <use x="801.429688" xlink:href="#DejaVuSans-101"/>
       <use x="862.953125" xlink:href="#DejaVuSans-95"/>
       <use x="912.953125" xlink:href="#DejaVuSans-68"/>
       <use x="989.955078" xlink:href="#DejaVuSans-97"/>
       <use x="1051.234375" xlink:href="#DejaVuSans-109"/>
       <use x="1148.646484" xlink:href="#DejaVuSans-101"/>
      </g>
     </g>
    </g>
    <g id="ytick_17">
     <g id="text_23">
      <!--  Syracuse v.  Clemson -->
      <g transform="translate(83.445312 370.680264)scale(0.14 -0.14)">
       <use xlink:href="#DejaVuSans-32"/>
       <use x="31.787109" xlink:href="#DejaVuSans-83"/>
       <use x="95.263672" xlink:href="#DejaVuSans-121"/>
       <use x="154.443359" xlink:href="#DejaVuSans-114"/>
       <use x="195.556641" xlink:href="#DejaVuSans-97"/>
       <use x="256.835938" xlink:href="#DejaVuSans-99"/>
       <use x="311.816406" xlink:href="#DejaVuSans-117"/>
       <use x="375.195312" xlink:href="#DejaVuSans-115"/>
       <use x="427.294922" xlink:href="#DejaVuSans-101"/>
       <use x="488.818359" xlink:href="#DejaVuSans-32"/>
       <use x="520.605469" xlink:href="#DejaVuSans-118"/>
       <use x="572.035156" xlink:href="#DejaVuSans-46"/>
       <use x="603.822266" xlink:href="#DejaVuSans-32"/>
       <use x="635.609375" xlink:href="#DejaVuSans-32"/>
       <use x="667.396484" xlink:href="#DejaVuSans-67"/>
       <use x="737.220703" xlink:href="#DejaVuSans-108"/>
       <use x="765.003906" xlink:href="#DejaVuSans-101"/>
       <use x="826.527344" xlink:href="#DejaVuSans-109"/>
       <use x="923.939453" xlink:href="#DejaVuSans-115"/>
       <use x="976.039062" xlink:href="#DejaVuSans-111"/>
       <use x="1037.220703" xlink:href="#DejaVuSans-110"/>
      </g>
     </g>
    </g>
    <g id="ytick_18">
     <g id="text_24">
      <!--  NC_State v.  Louisville -->
      <g transform="translate(79.026563 328.657315)scale(0.14 -0.14)">
       <use xlink:href="#DejaVuSans-32"/>
       <use x="31.787109" xlink:href="#DejaVuSans-78"/>
       <use x="106.591797" xlink:href="#DejaVuSans-67"/>
       <use x="176.416016" xlink:href="#DejaVuSans-95"/>
       <use x="226.416016" xlink:href="#DejaVuSans-83"/>
       <use x="289.892578" xlink:href="#DejaVuSans-116"/>
       <use x="329.101562" xlink:href="#DejaVuSans-97"/>
       <use x="390.380859" xlink:href="#DejaVuSans-116"/>
       <use x="429.589844" xlink:href="#DejaVuSans-101"/>
       <use x="491.113281" xlink:href="#DejaVuSans-32"/>
       <use x="522.900391" xlink:href="#DejaVuSans-118"/>
       <use x="574.330078" xlink:href="#DejaVuSans-46"/>
       <use x="606.117188" xlink:href="#DejaVuSans-32"/>
       <use x="637.904297" xlink:href="#DejaVuSans-32"/>
       <use x="669.691406" xlink:href="#DejaVuSans-76"/>
       <use x="723.654297" xlink:href="#DejaVuSans-111"/>
       <use x="784.835938" xlink:href="#DejaVuSans-117"/>
       <use x="848.214844" xlink:href="#DejaVuSans-105"/>
       <use x="875.998047" xlink:href="#DejaVuSans-115"/>
       <use x="928.097656" xlink:href="#DejaVuSans-118"/>
       <use x="987.277344" xlink:href="#DejaVuSans-105"/>
       <use x="1015.060547" xlink:href="#DejaVuSans-108"/>
       <use x="1042.84375" xlink:href="#DejaVuSans-108"/>
       <use x="1070.626953" xlink:href="#DejaVuSans-101"/>
      </g>
     </g>
    </g>
    <g id="ytick_19">
     <g id="text_25">
      <!--  Miami_FL v.  Virginia_Tech -->
      <g transform="translate(52.0175 286.634366)scale(0.14 -0.14)">
       <use xlink:href="#DejaVuSans-32"/>
       <use x="31.787109" xlink:href="#DejaVuSans-77"/>
       <use x="118.066406" xlink:href="#DejaVuSans-105"/>
       <use x="145.849609" xlink:href="#DejaVuSans-97"/>
       <use x="207.128906" xlink:href="#DejaVuSans-109"/>
       <use x="304.541016" xlink:href="#DejaVuSans-105"/>
       <use x="332.324219" xlink:href="#DejaVuSans-95"/>
       <use x="382.324219" xlink:href="#DejaVuSans-70"/>
       <use x="439.84375" xlink:href="#DejaVuSans-76"/>
       <use x="495.556641" xlink:href="#DejaVuSans-32"/>
       <use x="527.34375" xlink:href="#DejaVuSans-118"/>
       <use x="578.773438" xlink:href="#DejaVuSans-46"/>
       <use x="610.560547" xlink:href="#DejaVuSans-32"/>
       <use x="642.347656" xlink:href="#DejaVuSans-32"/>
       <use x="674.134766" xlink:href="#DejaVuSans-86"/>
       <use x="740.292969" xlink:href="#DejaVuSans-105"/>
       <use x="768.076172" xlink:href="#DejaVuSans-114"/>
       <use x="807.439453" xlink:href="#DejaVuSans-103"/>
       <use x="870.916016" xlink:href="#DejaVuSans-105"/>
       <use x="898.699219" xlink:href="#DejaVuSans-110"/>
       <use x="962.078125" xlink:href="#DejaVuSans-105"/>
       <use x="989.861328" xlink:href="#DejaVuSans-97"/>
       <use x="1051.140625" xlink:href="#DejaVuSans-95"/>
       <use x="1101.140625" xlink:href="#DejaVuSans-84"/>
       <use x="1145.224609" xlink:href="#DejaVuSans-101"/>
       <use x="1206.748047" xlink:href="#DejaVuSans-99"/>
       <use x="1261.728516" xlink:href="#DejaVuSans-104"/>
      </g>
     </g>
    </g>
    <g id="ytick_20">
     <g id="text_26">
      <!--  Georgia_Tech v.  Wake_Forest -->
      <g transform="translate(27.139062 244.611418)scale(0.14 -0.14)">
       <use xlink:href="#DejaVuSans-32"/>
       <use x="31.787109" xlink:href="#DejaVuSans-71"/>
       <use x="109.277344" xlink:href="#DejaVuSans-101"/>
       <use x="170.800781" xlink:href="#DejaVuSans-111"/>
       <use x="231.982422" xlink:href="#DejaVuSans-114"/>
       <use x="271.345703" xlink:href="#DejaVuSans-103"/>
       <use x="334.822266" xlink:href="#DejaVuSans-105"/>
       <use x="362.605469" xlink:href="#DejaVuSans-97"/>
       <use x="423.884766" xlink:href="#DejaVuSans-95"/>
       <use x="473.884766" xlink:href="#DejaVuSans-84"/>
       <use x="517.96875" xlink:href="#DejaVuSans-101"/>
       <use x="579.492188" xlink:href="#DejaVuSans-99"/>
       <use x="634.472656" xlink:href="#DejaVuSans-104"/>
       <use x="697.851562" xlink:href="#DejaVuSans-32"/>
       <use x="729.638672" xlink:href="#DejaVuSans-118"/>
       <use x="781.068359" xlink:href="#DejaVuSans-46"/>
       <use x="812.855469" xlink:href="#DejaVuSans-32"/>
       <use x="844.642578" xlink:href="#DejaVuSans-32"/>
       <use x="876.429688" xlink:href="#DejaVuSans-87"/>
       <use x="968.931641" xlink:href="#DejaVuSans-97"/>
       <use x="1030.210938" xlink:href="#DejaVuSans-107"/>
       <use x="1084.496094" xlink:href="#DejaVuSans-101"/>
       <use x="1146.019531" xlink:href="#DejaVuSans-95"/>
       <use x="1196.019531" xlink:href="#DejaVuSans-70"/>
       <use x="1249.914062" xlink:href="#DejaVuSans-111"/>
       <use x="1311.095703" xlink:href="#DejaVuSans-114"/>
       <use x="1349.958984" xlink:href="#DejaVuSans-101"/>
       <use x="1411.482422" xlink:href="#DejaVuSans-115"/>
       <use x="1463.582031" xlink:href="#DejaVuSans-116"/>
      </g>
     </g>
    </g>
    <g id="ytick_21">
     <g id="text_27">
      <!--  Florida_St v.  Boston_College -->
      <g transform="translate(31.455 202.588469)scale(0.14 -0.14)">
       <use xlink:href="#DejaVuSans-32"/>
       <use x="31.787109" xlink:href="#DejaVuSans-70"/>
       <use x="89.306641" xlink:href="#DejaVuSans-108"/>
       <use x="117.089844" xlink:href="#DejaVuSans-111"/>
       <use x="178.271484" xlink:href="#DejaVuSans-114"/>
       <use x="219.384766" xlink:href="#DejaVuSans-105"/>
       <use x="247.167969" xlink:href="#DejaVuSans-100"/>
       <use x="310.644531" xlink:href="#DejaVuSans-97"/>
       <use x="371.923828" xlink:href="#DejaVuSans-95"/>
       <use x="421.923828" xlink:href="#DejaVuSans-83"/>
       <use x="485.400391" xlink:href="#DejaVuSans-116"/>
       <use x="524.609375" xlink:href="#DejaVuSans-32"/>
       <use x="556.396484" xlink:href="#DejaVuSans-118"/>
       <use x="607.826172" xlink:href="#DejaVuSans-46"/>
       <use x="639.613281" xlink:href="#DejaVuSans-32"/>
       <use x="671.400391" xlink:href="#DejaVuSans-32"/>
       <use x="703.1875" xlink:href="#DejaVuSans-66"/>
       <use x="771.791016" xlink:href="#DejaVuSans-111"/>
       <use x="832.972656" xlink:href="#DejaVuSans-115"/>
       <use x="885.072266" xlink:href="#DejaVuSans-116"/>
       <use x="924.28125" xlink:href="#DejaVuSans-111"/>
       <use x="985.462891" xlink:href="#DejaVuSans-110"/>
       <use x="1048.841797" xlink:href="#DejaVuSans-95"/>
       <use x="1098.841797" xlink:href="#DejaVuSans-67"/>
       <use x="1168.666016" xlink:href="#DejaVuSans-111"/>
       <use x="1229.847656" xlink:href="#DejaVuSans-108"/>
       <use x="1257.630859" xlink:href="#DejaVuSans-108"/>
       <use x="1285.414062" xlink:href="#DejaVuSans-101"/>
       <use x="1346.9375" xlink:href="#DejaVuSans-103"/>
       <use x="1410.414062" xlink:href="#DejaVuSans-101"/>
      </g>
     </g>
    </g>
    <g id="ytick_22">
     <g id="text_28">
      <!--  Duke v.  North_Carolina -->
      <g transform="translate(68.465313 160.56552)scale(0.14 -0.14)">
       <use xlink:href="#DejaVuSans-32"/>
       <use x="31.787109" xlink:href="#DejaVuSans-68"/>
       <use x="108.789062" xlink:href="#DejaVuSans-117"/>
       <use x="172.167969" xlink:href="#DejaVuSans-107"/>
       <use x="226.453125" xlink:href="#DejaVuSans-101"/>
       <use x="287.976562" xlink:href="#DejaVuSans-32"/>
       <use x="319.763672" xlink:href="#DejaVuSans-118"/>
       <use x="371.193359" xlink:href="#DejaVuSans-46"/>
       <use x="402.980469" xlink:href="#DejaVuSans-32"/>
       <use x="434.767578" xlink:href="#DejaVuSans-32"/>
       <use x="466.554688" xlink:href="#DejaVuSans-78"/>
       <use x="541.359375" xlink:href="#DejaVuSans-111"/>
       <use x="602.541016" xlink:href="#DejaVuSans-114"/>
       <use x="643.654297" xlink:href="#DejaVuSans-116"/>
       <use x="682.863281" xlink:href="#DejaVuSans-104"/>
       <use x="746.242188" xlink:href="#DejaVuSans-95"/>
       <use x="796.242188" xlink:href="#DejaVuSans-67"/>
       <use x="866.066406" xlink:href="#DejaVuSans-97"/>
       <use x="927.345703" xlink:href="#DejaVuSans-114"/>
       <use x="966.208984" xlink:href="#DejaVuSans-111"/>
       <use x="1027.390625" xlink:href="#DejaVuSans-108"/>
       <use x="1055.173828" xlink:href="#DejaVuSans-105"/>
       <use x="1082.957031" xlink:href="#DejaVuSans-110"/>
       <use x="1146.335938" xlink:href="#DejaVuSans-97"/>
      </g>
     </g>
    </g>
    <g id="ytick_23">
     <g id="text_29">
      <!--  Virginia v.  Louisville -->
      <g transform="translate(90.554688 118.542572)scale(0.14 -0.14)">
       <use xlink:href="#DejaVuSans-32"/>
       <use x="31.787109" xlink:href="#DejaVuSans-86"/>
       <use x="97.945312" xlink:href="#DejaVuSans-105"/>
       <use x="125.728516" xlink:href="#DejaVuSans-114"/>
       <use x="165.091797" xlink:href="#DejaVuSans-103"/>
       <use x="228.568359" xlink:href="#DejaVuSans-105"/>
       <use x="256.351562" xlink:href="#DejaVuSans-110"/>
       <use x="319.730469" xlink:href="#DejaVuSans-105"/>
       <use x="347.513672" xlink:href="#DejaVuSans-97"/>
       <use x="408.792969" xlink:href="#DejaVuSans-32"/>
       <use x="440.580078" xlink:href="#DejaVuSans-118"/>
       <use x="492.009766" xlink:href="#DejaVuSans-46"/>
       <use x="523.796875" xlink:href="#DejaVuSans-32"/>
       <use x="555.583984" xlink:href="#DejaVuSans-32"/>
       <use x="587.371094" xlink:href="#DejaVuSans-76"/>
       <use x="641.333984" xlink:href="#DejaVuSans-111"/>
       <use x="702.515625" xlink:href="#DejaVuSans-117"/>
       <use x="765.894531" xlink:href="#DejaVuSans-105"/>
       <use x="793.677734" xlink:href="#DejaVuSans-115"/>
       <use x="845.777344" xlink:href="#DejaVuSans-118"/>
       <use x="904.957031" xlink:href="#DejaVuSans-105"/>
       <use x="932.740234" xlink:href="#DejaVuSans-108"/>
       <use x="960.523438" xlink:href="#DejaVuSans-108"/>
       <use x="988.306641" xlink:href="#DejaVuSans-101"/>
      </g>
     </g>
    </g>
    <g id="ytick_24">
     <g id="text_30">
      <!--  Georgia_Tech v.  NC_State -->
      <g transform="translate(50.52125 76.519623)scale(0.14 -0.14)">
       <use xlink:href="#DejaVuSans-32"/>
       <use x="31.787109" xlink:href="#DejaVuSans-71"/>
       <use x="109.277344" xlink:href="#DejaVuSans-101"/>
       <use x="170.800781" xlink:href="#DejaVuSans-111"/>
       <use x="231.982422" xlink:href="#DejaVuSans-114"/>
       <use x="271.345703" xlink:href="#DejaVuSans-103"/>
       <use x="334.822266" xlink:href="#DejaVuSans-105"/>
       <use x="362.605469" xlink:href="#DejaVuSans-97"/>
       <use x="423.884766" xlink:href="#DejaVuSans-95"/>
       <use x="473.884766" xlink:href="#DejaVuSans-84"/>
       <use x="517.96875" xlink:href="#DejaVuSans-101"/>
       <use x="579.492188" xlink:href="#DejaVuSans-99"/>
       <use x="634.472656" xlink:href="#DejaVuSans-104"/>
       <use x="697.851562" xlink:href="#DejaVuSans-32"/>
       <use x="729.638672" xlink:href="#DejaVuSans-118"/>
       <use x="781.068359" xlink:href="#DejaVuSans-46"/>
       <use x="812.855469" xlink:href="#DejaVuSans-32"/>
       <use x="844.642578" xlink:href="#DejaVuSans-32"/>
       <use x="876.429688" xlink:href="#DejaVuSans-78"/>
       <use x="951.234375" xlink:href="#DejaVuSans-67"/>
       <use x="1021.058594" xlink:href="#DejaVuSans-95"/>
       <use x="1071.058594" xlink:href="#DejaVuSans-83"/>
       <use x="1134.535156" xlink:href="#DejaVuSans-116"/>
       <use x="1173.744141" xlink:href="#DejaVuSans-97"/>
       <use x="1235.023438" xlink:href="#DejaVuSans-116"/>
       <use x="1274.232422" xlink:href="#DejaVuSans-101"/>
      </g>
     </g>
    </g>
   </g>
   <g id="LineCollection_1">
    <path clip-path="url(#pc50cdd245d)" d="M 377.209105 1037.728537 
L 652.097679 1037.728537 
" style="fill:none;stroke:#1f77b4;stroke-width:1.5;"/>
   </g>
   <g id="LineCollection_2">
    <path clip-path="url(#pc50cdd245d)" d="M 458.149088 1037.728537 
L 555.550908 1037.728537 
" style="fill:none;stroke:#1f77b4;stroke-width:3;"/>
   </g>
   <g id="LineCollection_3">
    <path clip-path="url(#pc50cdd245d)" d="M 330.690318 995.705588 
L 606.969259 995.705588 
" style="fill:none;stroke:#1f77b4;stroke-width:1.5;"/>
   </g>
   <g id="LineCollection_4">
    <path clip-path="url(#pc50cdd245d)" d="M 422.041416 995.705588 
L 520.806897 995.705588 
" style="fill:none;stroke:#1f77b4;stroke-width:3;"/>
   </g>
   <g id="LineCollection_5">
    <path clip-path="url(#pc50cdd245d)" d="M 269.779686 953.682639 
L 546.145158 953.682639 
" style="fill:none;stroke:#1f77b4;stroke-width:1.5;"/>
   </g>
   <g id="LineCollection_6">
    <path clip-path="url(#pc50cdd245d)" d="M 353.345202 953.682639 
L 454.994553 953.682639 
" style="fill:none;stroke:#1f77b4;stroke-width:3;"/>
   </g>
   <g id="LineCollection_7">
    <path clip-path="url(#pc50cdd245d)" d="M 357.052754 911.659691 
L 633.358827 911.659691 
" style="fill:none;stroke:#1f77b4;stroke-width:1.5;"/>
   </g>
   <g id="LineCollection_8">
    <path clip-path="url(#pc50cdd245d)" d="M 438.066253 911.659691 
L 536.482792 911.659691 
" style="fill:none;stroke:#1f77b4;stroke-width:3;"/>
   </g>
   <g id="LineCollection_9">
    <path clip-path="url(#pc50cdd245d)" d="M 335.17575 869.636742 
L 607.785704 869.636742 
" style="fill:none;stroke:#1f77b4;stroke-width:1.5;"/>
   </g>
   <g id="LineCollection_10">
    <path clip-path="url(#pc50cdd245d)" d="M 421.969498 869.636742 
L 522.011239 869.636742 
" style="fill:none;stroke:#1f77b4;stroke-width:3;"/>
   </g>
   <g id="LineCollection_11">
    <path clip-path="url(#pc50cdd245d)" d="M 360.051917 827.613793 
L 633.235455 827.613793 
" style="fill:none;stroke:#1f77b4;stroke-width:1.5;"/>
   </g>
   <g id="LineCollection_12">
    <path clip-path="url(#pc50cdd245d)" d="M 445.87543 827.613793 
L 541.796279 827.613793 
" style="fill:none;stroke:#1f77b4;stroke-width:3;"/>
   </g>
   <g id="LineCollection_13">
    <path clip-path="url(#pc50cdd245d)" d="M 333.518386 785.590844 
L 608.797811 785.590844 
" style="fill:none;stroke:#1f77b4;stroke-width:1.5;"/>
   </g>
   <g id="LineCollection_14">
    <path clip-path="url(#pc50cdd245d)" d="M 418.752883 785.590844 
L 517.138856 785.590844 
" style="fill:none;stroke:#1f77b4;stroke-width:3;"/>
   </g>
   <g id="LineCollection_15">
    <path clip-path="url(#pc50cdd245d)" d="M 349.079979 743.567896 
L 625.357969 743.567896 
" style="fill:none;stroke:#1f77b4;stroke-width:1.5;"/>
   </g>
   <g id="LineCollection_16">
    <path clip-path="url(#pc50cdd245d)" d="M 436.979179 743.567896 
L 535.970637 743.567896 
" style="fill:none;stroke:#1f77b4;stroke-width:3;"/>
   </g>
   <g id="LineCollection_17">
    <path clip-path="url(#pc50cdd245d)" d="M 266.195305 701.544947 
L 549.110154 701.544947 
" style="fill:none;stroke:#1f77b4;stroke-width:1.5;"/>
   </g>
   <g id="LineCollection_18">
    <path clip-path="url(#pc50cdd245d)" d="M 358.518462 701.544947 
L 459.796434 701.544947 
" style="fill:none;stroke:#1f77b4;stroke-width:3;"/>
   </g>
   <g id="LineCollection_19">
    <path clip-path="url(#pc50cdd245d)" d="M 334.405018 659.521998 
L 608.792976 659.521998 
" style="fill:none;stroke:#1f77b4;stroke-width:1.5;"/>
   </g>
   <g id="LineCollection_20">
    <path clip-path="url(#pc50cdd245d)" d="M 431.609823 659.521998 
L 527.376862 659.521998 
" style="fill:none;stroke:#1f77b4;stroke-width:3;"/>
   </g>
   <g id="LineCollection_21">
    <path clip-path="url(#pc50cdd245d)" d="M 295.171971 617.49905 
L 571.326844 617.49905 
" style="fill:none;stroke:#1f77b4;stroke-width:1.5;"/>
   </g>
   <g id="LineCollection_22">
    <path clip-path="url(#pc50cdd245d)" d="M 380.463661 617.49905 
L 481.059056 617.49905 
" style="fill:none;stroke:#1f77b4;stroke-width:3;"/>
   </g>
   <g id="LineCollection_23">
    <path clip-path="url(#pc50cdd245d)" d="M 319.85127 575.476101 
L 595.45458 575.476101 
" style="fill:none;stroke:#1f77b4;stroke-width:1.5;"/>
   </g>
   <g id="LineCollection_24">
    <path clip-path="url(#pc50cdd245d)" d="M 405.880838 575.476101 
L 504.874042 575.476101 
" style="fill:none;stroke:#1f77b4;stroke-width:3;"/>
   </g>
   <g id="LineCollection_25">
    <path clip-path="url(#pc50cdd245d)" d="M 313.529448 533.453152 
L 579.223205 533.453152 
" style="fill:none;stroke:#1f77b4;stroke-width:1.5;"/>
   </g>
   <g id="LineCollection_26">
    <path clip-path="url(#pc50cdd245d)" d="M 406.712759 533.453152 
L 503.916318 533.453152 
" style="fill:none;stroke:#1f77b4;stroke-width:3;"/>
   </g>
   <g id="LineCollection_27">
    <path clip-path="url(#pc50cdd245d)" d="M 415.976 491.430204 
L 699.532653 491.430204 
" style="fill:none;stroke:#1f77b4;stroke-width:1.5;"/>
   </g>
   <g id="LineCollection_28">
    <path clip-path="url(#pc50cdd245d)" d="M 501.789715 491.430204 
L 603.354809 491.430204 
" style="fill:none;stroke:#1f77b4;stroke-width:3;"/>
   </g>
   <g id="LineCollection_29">
    <path clip-path="url(#pc50cdd245d)" d="M 315.192977 449.407255 
L 588.153585 449.407255 
" style="fill:none;stroke:#1f77b4;stroke-width:1.5;"/>
   </g>
   <g id="LineCollection_30">
    <path clip-path="url(#pc50cdd245d)" d="M 401.129454 449.407255 
L 498.608681 449.407255 
" style="fill:none;stroke:#1f77b4;stroke-width:3;"/>
   </g>
   <g id="LineCollection_31">
    <path clip-path="url(#pc50cdd245d)" d="M 396.906973 407.384306 
L 677.34889 407.384306 
" style="fill:none;stroke:#1f77b4;stroke-width:1.5;"/>
   </g>
   <g id="LineCollection_32">
    <path clip-path="url(#pc50cdd245d)" d="M 484.662773 407.384306 
L 582.818737 407.384306 
" style="fill:none;stroke:#1f77b4;stroke-width:3;"/>
   </g>
   <g id="LineCollection_33">
    <path clip-path="url(#pc50cdd245d)" d="M 301.330875 365.361358 
L 572.023179 365.361358 
" style="fill:none;stroke:#1f77b4;stroke-width:1.5;"/>
   </g>
   <g id="LineCollection_34">
    <path clip-path="url(#pc50cdd245d)" d="M 385.010237 365.361358 
L 484.542003 365.361358 
" style="fill:none;stroke:#1f77b4;stroke-width:3;"/>
   </g>
   <g id="LineCollection_35">
    <path clip-path="url(#pc50cdd245d)" d="M 316.52217 323.338409 
L 592.255897 323.338409 
" style="fill:none;stroke:#1f77b4;stroke-width:1.5;"/>
   </g>
   <g id="LineCollection_36">
    <path clip-path="url(#pc50cdd245d)" d="M 399.432508 323.338409 
L 497.495488 323.338409 
" style="fill:none;stroke:#1f77b4;stroke-width:3;"/>
   </g>
   <g id="LineCollection_37">
    <path clip-path="url(#pc50cdd245d)" d="M 315.540882 281.31546 
L 597.623769 281.31546 
" style="fill:none;stroke:#1f77b4;stroke-width:1.5;"/>
   </g>
   <g id="LineCollection_38">
    <path clip-path="url(#pc50cdd245d)" d="M 404.986737 281.31546 
L 506.456873 281.31546 
" style="fill:none;stroke:#1f77b4;stroke-width:3;"/>
   </g>
   <g id="LineCollection_39">
    <path clip-path="url(#pc50cdd245d)" d="M 310.048708 239.292512 
L 591.903428 239.292512 
" style="fill:none;stroke:#1f77b4;stroke-width:1.5;"/>
   </g>
   <g id="LineCollection_40">
    <path clip-path="url(#pc50cdd245d)" d="M 402.512907 239.292512 
L 504.239323 239.292512 
" style="fill:none;stroke:#1f77b4;stroke-width:3;"/>
   </g>
   <g id="LineCollection_41">
    <path clip-path="url(#pc50cdd245d)" d="M 342.260475 197.269563 
L 617.904628 197.269563 
" style="fill:none;stroke:#1f77b4;stroke-width:1.5;"/>
   </g>
   <g id="LineCollection_42">
    <path clip-path="url(#pc50cdd245d)" d="M 423.978165 197.269563 
L 525.657261 197.269563 
" style="fill:none;stroke:#1f77b4;stroke-width:3;"/>
   </g>
   <g id="LineCollection_43">
    <path clip-path="url(#pc50cdd245d)" d="M 345.240897 155.246614 
L 615.350722 155.246614 
" style="fill:none;stroke:#1f77b4;stroke-width:1.5;"/>
   </g>
   <g id="LineCollection_44">
    <path clip-path="url(#pc50cdd245d)" d="M 439.525463 155.246614 
L 538.084484 155.246614 
" style="fill:none;stroke:#1f77b4;stroke-width:3;"/>
   </g>
   <g id="LineCollection_45">
    <path clip-path="url(#pc50cdd245d)" d="M 323.69123 113.223665 
L 603.856347 113.223665 
" style="fill:none;stroke:#1f77b4;stroke-width:1.5;"/>
   </g>
   <g id="LineCollection_46">
    <path clip-path="url(#pc50cdd245d)" d="M 411.804694 113.223665 
L 510.264409 113.223665 
" style="fill:none;stroke:#1f77b4;stroke-width:3;"/>
   </g>
   <g id="LineCollection_47">
    <path clip-path="url(#pc50cdd245d)" d="M 270.51283 71.200717 
L 560.941021 71.200717 
" style="fill:none;stroke:#1f77b4;stroke-width:1.5;"/>
   </g>
   <g id="LineCollection_48">
    <path clip-path="url(#pc50cdd245d)" d="M 368.893338 71.200717 
L 469.853555 71.200717 
" style="fill:none;stroke:#1f77b4;stroke-width:3;"/>
   </g>
   <g id="line2d_7">
    <defs>
     <path d="M 0 2.25 
C 0.596707 2.25 1.169055 2.012926 1.59099 1.59099 
C 2.012926 1.169055 2.25 0.596707 2.25 0 
C 2.25 -0.596707 2.012926 -1.169055 1.59099 -1.59099 
C 1.169055 -2.012926 0.596707 -2.25 0 -2.25 
C -0.596707 -2.25 -1.169055 -2.012926 -1.59099 -1.59099 
C -2.012926 -1.169055 -2.25 -0.596707 -2.25 0 
C -2.25 0.596707 -2.012926 1.169055 -1.59099 1.59099 
C -1.169055 2.012926 -0.596707 2.25 0 2.25 
z
" id="mc2f3fb11cf" style="stroke:#1f77b4;"/>
    </defs>
    <g clip-path="url(#pc50cdd245d)">
     <use style="fill:#ffffff;stroke:#1f77b4;" x="505.738219" xlink:href="#mc2f3fb11cf" y="1037.728537"/>
    </g>
   </g>
   <g id="line2d_8">
    <g clip-path="url(#pc50cdd245d)">
     <use style="fill:#ffffff;stroke:#1f77b4;" x="470.314825" xlink:href="#mc2f3fb11cf" y="995.705588"/>
    </g>
   </g>
   <g id="line2d_9">
    <g clip-path="url(#pc50cdd245d)">
     <use style="fill:#ffffff;stroke:#1f77b4;" x="404.400934" xlink:href="#mc2f3fb11cf" y="953.682639"/>
    </g>
   </g>
   <g id="line2d_10">
    <g clip-path="url(#pc50cdd245d)">
     <use style="fill:#ffffff;stroke:#1f77b4;" x="485.766573" xlink:href="#mc2f3fb11cf" y="911.659691"/>
    </g>
   </g>
   <g id="line2d_11">
    <g clip-path="url(#pc50cdd245d)">
     <use style="fill:#ffffff;stroke:#1f77b4;" x="473.189847" xlink:href="#mc2f3fb11cf" y="869.636742"/>
    </g>
   </g>
   <g id="line2d_12">
    <g clip-path="url(#pc50cdd245d)">
     <use style="fill:#ffffff;stroke:#1f77b4;" x="495.587902" xlink:href="#mc2f3fb11cf" y="827.613793"/>
    </g>
   </g>
   <g id="line2d_13">
    <g clip-path="url(#pc50cdd245d)">
     <use style="fill:#ffffff;stroke:#1f77b4;" x="468.089741" xlink:href="#mc2f3fb11cf" y="785.590844"/>
    </g>
   </g>
   <g id="line2d_14">
    <g clip-path="url(#pc50cdd245d)">
     <use style="fill:#ffffff;stroke:#1f77b4;" x="486.689813" xlink:href="#mc2f3fb11cf" y="743.567896"/>
    </g>
   </g>
   <g id="line2d_15">
    <g clip-path="url(#pc50cdd245d)">
     <use style="fill:#ffffff;stroke:#1f77b4;" x="408.639355" xlink:href="#mc2f3fb11cf" y="701.544947"/>
    </g>
   </g>
   <g id="line2d_16">
    <g clip-path="url(#pc50cdd245d)">
     <use style="fill:#ffffff;stroke:#1f77b4;" x="478.199047" xlink:href="#mc2f3fb11cf" y="659.521998"/>
    </g>
   </g>
   <g id="line2d_17">
    <g clip-path="url(#pc50cdd245d)">
     <use style="fill:#ffffff;stroke:#1f77b4;" x="430.729267" xlink:href="#mc2f3fb11cf" y="617.49905"/>
    </g>
   </g>
   <g id="line2d_18">
    <g clip-path="url(#pc50cdd245d)">
     <use style="fill:#ffffff;stroke:#1f77b4;" x="457.102685" xlink:href="#mc2f3fb11cf" y="575.476101"/>
    </g>
   </g>
   <g id="line2d_19">
    <g clip-path="url(#pc50cdd245d)">
     <use style="fill:#ffffff;stroke:#1f77b4;" x="453.888523" xlink:href="#mc2f3fb11cf" y="533.453152"/>
    </g>
   </g>
   <g id="line2d_20">
    <g clip-path="url(#pc50cdd245d)">
     <use style="fill:#ffffff;stroke:#1f77b4;" x="552.378139" xlink:href="#mc2f3fb11cf" y="491.430204"/>
    </g>
   </g>
   <g id="line2d_21">
    <g clip-path="url(#pc50cdd245d)">
     <use style="fill:#ffffff;stroke:#1f77b4;" x="450.173686" xlink:href="#mc2f3fb11cf" y="449.407255"/>
    </g>
   </g>
   <g id="line2d_22">
    <g clip-path="url(#pc50cdd245d)">
     <use style="fill:#ffffff;stroke:#1f77b4;" x="532.794844" xlink:href="#mc2f3fb11cf" y="407.384306"/>
    </g>
   </g>
   <g id="line2d_23">
    <g clip-path="url(#pc50cdd245d)">
     <use style="fill:#ffffff;stroke:#1f77b4;" x="434.211948" xlink:href="#mc2f3fb11cf" y="365.361358"/>
    </g>
   </g>
   <g id="line2d_24">
    <g clip-path="url(#pc50cdd245d)">
     <use style="fill:#ffffff;stroke:#1f77b4;" x="449.62084" xlink:href="#mc2f3fb11cf" y="323.338409"/>
    </g>
   </g>
   <g id="line2d_25">
    <g clip-path="url(#pc50cdd245d)">
     <use style="fill:#ffffff;stroke:#1f77b4;" x="454.836314" xlink:href="#mc2f3fb11cf" y="281.31546"/>
    </g>
   </g>
   <g id="line2d_26">
    <g clip-path="url(#pc50cdd245d)">
     <use style="fill:#ffffff;stroke:#1f77b4;" x="453.748568" xlink:href="#mc2f3fb11cf" y="239.292512"/>
    </g>
   </g>
   <g id="line2d_27">
    <g clip-path="url(#pc50cdd245d)">
     <use style="fill:#ffffff;stroke:#1f77b4;" x="475.378566" xlink:href="#mc2f3fb11cf" y="197.269563"/>
    </g>
   </g>
   <g id="line2d_28">
    <g clip-path="url(#pc50cdd245d)">
     <use style="fill:#ffffff;stroke:#1f77b4;" x="488.270488" xlink:href="#mc2f3fb11cf" y="155.246614"/>
    </g>
   </g>
   <g id="line2d_29">
    <g clip-path="url(#pc50cdd245d)">
     <use style="fill:#ffffff;stroke:#1f77b4;" x="461.220682" xlink:href="#mc2f3fb11cf" y="113.223665"/>
    </g>
   </g>
   <g id="line2d_30">
    <g clip-path="url(#pc50cdd245d)">
     <use style="fill:#ffffff;stroke:#1f77b4;" x="418.600534" xlink:href="#mc2f3fb11cf" y="71.200717"/>
    </g>
   </g>
   <g id="line2d_31">
    <path clip-path="url(#pc50cdd245d)" d="M 432.186044 1060.650145 
L 432.186044 25.3575 
" style="fill:none;stroke:#000000;stroke-dasharray:1.5,2.475;stroke-dashoffset:0;stroke-width:1.5;"/>
   </g>
   <g id="patch_3">
    <path d="M 244.528438 1060.650145 
L 721.19952 1060.650145 
" style="fill:none;stroke:#000000;stroke-linecap:square;stroke-linejoin:miter;stroke-width:0.8;"/>
   </g>
   <g id="patch_4">
    <path d="M 244.528438 25.3575 
L 721.19952 25.3575 
" style="fill:none;stroke:#000000;stroke-linecap:square;stroke-linejoin:miter;stroke-width:0.8;"/>
   </g>
   <g id="text_31">
    <!-- 94.0% HDI -->
    <g transform="translate(440.371479 19.3575)scale(0.16 -0.16)">
     <defs>
      <path d="M 10.984375 1.515625 
L 10.984375 10.5 
Q 14.703125 8.734375 18.5 7.8125 
Q 22.3125 6.890625 25.984375 6.890625 
Q 35.75 6.890625 40.890625 13.453125 
Q 46.046875 20.015625 46.78125 33.40625 
Q 43.953125 29.203125 39.59375 26.953125 
Q 35.25 24.703125 29.984375 24.703125 
Q 19.046875 24.703125 12.671875 31.3125 
Q 6.296875 37.9375 6.296875 49.421875 
Q 6.296875 60.640625 12.9375 67.421875 
Q 19.578125 74.21875 30.609375 74.21875 
Q 43.265625 74.21875 49.921875 64.515625 
Q 56.59375 54.828125 56.59375 36.375 
Q 56.59375 19.140625 48.40625 8.859375 
Q 40.234375 -1.421875 26.421875 -1.421875 
Q 22.703125 -1.421875 18.890625 -0.6875 
Q 15.09375 0.046875 10.984375 1.515625 
z
M 30.609375 32.421875 
Q 37.25 32.421875 41.125 36.953125 
Q 45.015625 41.5 45.015625 49.421875 
Q 45.015625 57.28125 41.125 61.84375 
Q 37.25 66.40625 30.609375 66.40625 
Q 23.96875 66.40625 20.09375 61.84375 
Q 16.21875 57.28125 16.21875 49.421875 
Q 16.21875 41.5 20.09375 36.953125 
Q 23.96875 32.421875 30.609375 32.421875 
z
" id="DejaVuSans-57"/>
      <path d="M 37.796875 64.3125 
L 12.890625 25.390625 
L 37.796875 25.390625 
z
M 35.203125 72.90625 
L 47.609375 72.90625 
L 47.609375 25.390625 
L 58.015625 25.390625 
L 58.015625 17.1875 
L 47.609375 17.1875 
L 47.609375 0 
L 37.796875 0 
L 37.796875 17.1875 
L 4.890625 17.1875 
L 4.890625 26.703125 
z
" id="DejaVuSans-52"/>
      <path d="M 72.703125 32.078125 
Q 68.453125 32.078125 66.03125 28.46875 
Q 63.625 24.859375 63.625 18.40625 
Q 63.625 12.0625 66.03125 8.421875 
Q 68.453125 4.78125 72.703125 4.78125 
Q 76.859375 4.78125 79.265625 8.421875 
Q 81.6875 12.0625 81.6875 18.40625 
Q 81.6875 24.8125 79.265625 28.4375 
Q 76.859375 32.078125 72.703125 32.078125 
z
M 72.703125 38.28125 
Q 80.421875 38.28125 84.953125 32.90625 
Q 89.5 27.546875 89.5 18.40625 
Q 89.5 9.28125 84.9375 3.921875 
Q 80.375 -1.421875 72.703125 -1.421875 
Q 64.890625 -1.421875 60.34375 3.921875 
Q 55.8125 9.28125 55.8125 18.40625 
Q 55.8125 27.59375 60.375 32.9375 
Q 64.9375 38.28125 72.703125 38.28125 
z
M 22.3125 68.015625 
Q 18.109375 68.015625 15.6875 64.375 
Q 13.28125 60.75 13.28125 54.390625 
Q 13.28125 47.953125 15.671875 44.328125 
Q 18.0625 40.71875 22.3125 40.71875 
Q 26.5625 40.71875 28.96875 44.328125 
Q 31.390625 47.953125 31.390625 54.390625 
Q 31.390625 60.6875 28.953125 64.34375 
Q 26.515625 68.015625 22.3125 68.015625 
z
M 66.40625 74.21875 
L 74.21875 74.21875 
L 28.609375 -1.421875 
L 20.796875 -1.421875 
z
M 22.3125 74.21875 
Q 30.03125 74.21875 34.609375 68.875 
Q 39.203125 63.53125 39.203125 54.390625 
Q 39.203125 45.171875 34.640625 39.84375 
Q 30.078125 34.515625 22.3125 34.515625 
Q 14.546875 34.515625 10.03125 39.859375 
Q 5.515625 45.21875 5.515625 54.390625 
Q 5.515625 63.484375 10.046875 68.84375 
Q 14.59375 74.21875 22.3125 74.21875 
z
" id="DejaVuSans-37"/>
      <path d="M 9.8125 72.90625 
L 19.671875 72.90625 
L 19.671875 43.015625 
L 55.515625 43.015625 
L 55.515625 72.90625 
L 65.375 72.90625 
L 65.375 0 
L 55.515625 0 
L 55.515625 34.71875 
L 19.671875 34.71875 
L 19.671875 0 
L 9.8125 0 
z
" id="DejaVuSans-72"/>
      <path d="M 9.8125 72.90625 
L 19.671875 72.90625 
L 19.671875 0 
L 9.8125 0 
z
" id="DejaVuSans-73"/>
     </defs>
     <use xlink:href="#DejaVuSans-57"/>
     <use x="63.623047" xlink:href="#DejaVuSans-52"/>
     <use x="127.246094" xlink:href="#DejaVuSans-46"/>
     <use x="159.033203" xlink:href="#DejaVuSans-48"/>
     <use x="222.65625" xlink:href="#DejaVuSans-37"/>
     <use x="317.675781" xlink:href="#DejaVuSans-32"/>
     <use x="349.462891" xlink:href="#DejaVuSans-72"/>
     <use x="424.658203" xlink:href="#DejaVuSans-68"/>
     <use x="501.660156" xlink:href="#DejaVuSans-73"/>
    </g>
   </g>
  </g>
 </g>
 <defs>
  <clipPath id="pc50cdd245d">
   <rect height="1035.292645" width="476.671083" x="244.528438" y="25.3575"/>
  </clipPath>
 </defs>
</svg>
